<?xml version="1.0" encoding="UTF-8" standalone="no"?>
<svg
   id="Capa_2"
   data-name="Capa 2"
   viewBox="0 0 490.03 472.16"
   version="1.1"
   sodipodi:docname="Big_Brain.html"
   inkscape:version="1.1.2 (0a00cf5339, 2022-02-04)"
   xmlns:inkscape="http://www.inkscape.org/namespaces/inkscape"
   xmlns:sodipodi="http://sodipodi.sourceforge.net/DTD/sodipodi-0.dtd"
   xmlns="http://www.w3.org/2000/svg"
   xmlns:svg="http://www.w3.org/2000/svg">
  <defs
     id="defs152" />
  <sodipodi:namedview
     id="namedview150"
     pagecolor="#505050"
     bordercolor="#eeeeee"
     borderopacity="1"
     inkscape:pageshadow="0"
     inkscape:pageopacity="0"
     inkscape:pagecheckerboard="0"
     showgrid="false"
     inkscape:zoom="1.577855"
     inkscape:cx="237.66443"
     inkscape:cy="235.76312"
     inkscape:window-width="1920"
     inkscape:window-height="1043"
     inkscape:window-x="0"
     inkscape:window-y="75"
     inkscape:window-maximized="1"
     inkscape:current-layer="Capa_1-2" />
  <g
     id="Capa_1-2"
     data-name="Capa 1">
    <path
       d="m 169.40736,432.01576 c -0.68496,13.37882 -1.02298,26.75763 -1.02298,40.14534 H 70.133684 c -0.204595,-1.12083 -0.346923,-2.1527 -0.426983,-3.10453 -0.01779,-0.23127 -0.03558,-0.45367 -0.04447,-0.67604 -0.01779,-0.2224 -0.02669,-0.43589 -0.03558,-0.64938 0,-0.11564 -0.0089,-0.23128 -0.0089,-0.34692 -0.0089,-0.48926 0.0089,-0.94293 0.03559,-1.37881 0.898445,-12.51595 2.437365,-24.16904 4.634551,-34.96817 1.921426,-9.4648 11.982226,-21.83843 21.749475,-23.92886 4.901413,-1.04079 9.749463,-2.25946 14.553023,-3.63826 3.70941,-1.06747 3.58488,-3.12232 6.06672,-5.3284 5.9244,-5.23945 10.81692,-10.90588 13.2187,-17.84435 2.08154,-5.98668 5.94219,-10.30988 7.96147,-16.22538 0.96961,-2.85545 2.24166,-5.17718 3.81616,-6.96517 0.93403,-0.15122 1.47665,-0.009 1.61009,0.40919 0.88065,2.64196 2.19718,4.87473 3.96739,6.7072 2.54411,2.63307 3.86063,5.75538 6.54707,8.30839 0.23128,0.22238 0.4003,0.48925 0.49815,0.7917 0.33803,0.97851 0.89845,1.81467 1.67236,2.51742 0.21349,0.18681 0.39139,0.4092 0.53372,0.64937 l 1.87695,3.24685 2.10823,3.60268 c 5.04374,9.73167 8.06821,20.04154 9.07341,30.92072 0.32913,3.61157 0.28465,9.52707 -0.13344,17.75541 z"
       id="path2"
       style="fill:#df2156;fill-opacity:1;stroke-width:0.88955" />
    <g
       id="g26"
       transform="matrix(0.88954906,0,0,0.88954906,27.06172,52.15162)">
      <path
         d="m 48.06,278.17 c -0.14,-0.19 -0.11,-0.46 0.08,-0.6 l 0.1,-0.07 c 1.07,-0.83 2.52,-0.74 3.25,0.2 v 0 c 0.72,0.95 0.44,2.38 -0.63,3.2 l -0.1,0.08 c -0.18,0.14 -0.45,0.11 -0.6,-0.08 z"
         style="fill:#ffffff"
         id="path4" />
      <path
         d="m 53.51,282.4 c -0.28,-0.09 -0.45,-0.36 -0.42,-0.65 l 0.37,-4.17 c 0.03,-0.32 0.31,-0.56 0.63,-0.52 2.9,0.33 5.62,1.21 8.15,2.62 0.41,0.23 0.46,0.8 0.1,1.1 -2.58,2.16 -5.52,2.7 -8.83,1.62 z"
         style="fill:#ffffff"
         id="path6" />
      <path
         d="m 136.94,284.69 c -1.02,-0.59 -0.65,-2.14 0.52,-2.23 5.31,-0.41 16.55,-0.5 21.41,2.56 0.34,0.21 0.28,0.72 -0.1,0.85 -7.37,2.52 -15.03,2.82 -21.83,-1.18 z"
         style="fill:#ffffff"
         id="path8" />
      <path
         d="m 104.58,307 c -1.75,3.91 6.03,6.57 9.37,8.16 2.61,1.25 4.07,1.74 6.28,3.65 2.21,1.93 4.55,2.89 6.84,4.86 0.08,3.25 3.41,0.99 4.69,4.24 0.21,0.53 0.68,5.71 0.84,5.16 l -1.41,1.78 c 0.24,-0.83 -1.19,1.11 -0.81,1.88 l -1.16,1.59 c 0.17,0.34 -0.96,0.66 -1.22,0.94 -6.53,7.25 -14.54,8.57 -24.16,10 -0.13,0.02 -0.17,0.1 -0.14,0.25 0.03,0.19 0.15,0.27 0.34,0.22 l 13.91,-3.33 c 0.35,-0.08 0.56,0.37 0.27,0.58 -5.45,4 -11.49,6.72 -18.12,8.16 -0.26,0.05 -0.52,0 -0.73,-0.14 -0.37,-0.23 -0.44,-0.11 -0.22,0.36 0.05,0.12 0.18,0.19 0.3,0.17 3.78,-0.49 7.08,-1.13 9.91,-1.93 0.92,-0.26 2.57,-1.06 3.96,-1.26 0.15,-0.02 0.18,0.03 0.07,0.14 l -32.4,33.63 c -0.21,0.23 -0.48,0.33 -0.8,0.3 -2.68,-0.25 -5.42,-0.21 -8,-0.88 -18.86,-4.89 -37.47,-5.5 -56.79,-3.12 -2.73,0.33 -5.23,1.28 -7.51,2.85 -0.74,0.51 -1.76,0.3 -2.24,-0.46 -3.79,-6.06 13.63,-22.71 18.03,-26.2 0.1,-0.08 0.24,0.04 0.18,0.15 l -6.73,12.26 c -0.03,0.06 0,0.13 0.04,0.16 0.05,0.04 0.12,0.03 0.16,-0.02 4.63,-5.46 8.52,-11.2 13.72,-16.22 6.4,-6.17 10.8,-15.26 14.93,-23.06 2.93,-5.54 8.24,-10 12.58,-14.42 5.4,-5.49 13.87,-9.31 20.55,-13.11 0.09,-0.05 0.21,-0.03 0.28,0.06 0.07,0.08 0.06,0.21 -0.01,0.29 -2.11,2.35 -6.16,6.24 -3.19,9.5 2.37,2.62 6.74,-0.28 8.88,-1.81 3.95,-2.83 8.26,-4.98 12.93,-6.45 0.33,-0.11 0.62,-0.04 0.87,0.19 l 5.7,0.89 z"
         style="fill:#ffffff"
         id="path10" />
      <path
         d="m 50.3,321.77 c 0.64,-1.75 0.53,-3.4 -0.33,-4.95 -0.25,-0.44 -0.12,-0.69 0.39,-0.75 l 4.6,-0.51 c 0.43,-0.05 0.7,0.46 0.42,0.79 l -4.73,5.63 c -0.15,0.18 -0.43,0 -0.35,-0.21 z"
         style="fill:#ffffff"
         id="path12" />
      <ellipse
         cx="41.540001"
         cy="323.82001"
         rx="2.77"
         ry="1.14"
         transform="rotate(-64.8,41.53846,323.82127)"
         style="fill:#ffffff"
         id="ellipse14" />
      <path
         d="m 122,323.67 c 3.2,1.43 10.02,5.37 8.04,9.76 -0.12,0.28 -0.5,0.34 -0.7,0.1 l -7.42,-8.74 c -0.08,-0.4 -0.05,-0.77 0.08,-1.12 z"
         style="fill:#ffffff"
         id="path16" />
      <path
         d="m 121.41,348.99 c 0.63,-0.07 0.86,0.1 0.7,0.51 -10.31,9.38 -19.54,23.16 -27.14,34.85 -0.17,0.27 -0.41,0.46 -0.7,0.57 -3.23,1.27 -6.58,1.78 -10.07,1.54 -0.47,-0.03 -0.54,-0.22 -0.22,-0.56 10.63,-11.41 22.76,-22.62 33.49,-34.57 0.83,-0.92 2.14,-1.7 3.94,-2.34 z"
         style="fill:#ffffff"
         id="path18" />
      <path
         d="m 19.22,389.52 c -0.43,-0.06 -0.52,-0.65 -0.13,-0.83 1.32,-0.62 3.18,-0.45 4.39,-0.51 12.09,-0.65 24.13,-0.27 36.12,1.16 3.77,0.45 9.2,1.94 14.05,2.08 0.13,0 0.23,0.04 0.31,0.1 0.12,0.09 0.1,0.14 -0.05,0.15 -7.43,0.45 -14.84,0.24 -22.22,-0.63 -1.89,-0.23 -4.09,-0.24 -6.6,-0.05 -4.53,0.35 -9.45,-0.43 -13.6,-0.49 -3.99,-0.05 -8.08,-0.38 -12.27,-0.98 z"
         style="fill:#ffffff"
         id="path20" />
      <path
         d="m 132.96,436.34 c 0.99,-3.95 2.17,-7.73 2.21,-11.9 0,-0.13 0.07,-0.2 0.2,-0.19 h 0.28 c 0.13,0 0.2,0.06 0.22,0.18 0.73,4.38 -0.15,8.39 -2.64,12.03 -0.09,0.14 -0.31,0.04 -0.27,-0.12 z"
         style="fill:#ffffff"
         id="path22" />
      <path
         d="m 117.87,439.2 c 5.44,-2.94 6.64,-5.11 9.75,-8.19 0.41,-0.41 0.54,-0.33 0.37,0.23 -1.75,5.91 -6.03,14.35 -12.27,16.47 -10.87,3.68 -22.82,5.24 -32.29,-2.66 -0.24,-0.2 -0.03,-0.58 0.27,-0.49 11.44,3.55 24.74,-0.27 34.17,-5.36 z"
         style="fill:#ffffff"
         id="path24" />
    </g>
    <g
       id="g34"
       transform="matrix(0.88954906,0,0,0.88954906,27.06172,52.15162)">
      <path
         d="m 99.74,104.46 c 0.94,-0.05 1.84,2.78 2.02,6.32 0.18,3.54 -0.42,6.45 -1.35,6.5 -0.94,0.05 -1.84,-2.78 -2.02,-6.32 -0.18,-3.54 0.42,-6.45 1.35,-6.5 z m -6.95,124.19 c -0.65,-0.34 -1.27,-1.06 -1.86,-2.15 -3.89,-7.2 -5.1,-14.82 -3.61,-22.85 0.04,-0.23 0.25,-0.39 0.48,-0.38 0.23,0 0.42,0.2 0.43,0.43 0.47,8.21 2.58,15.93 6.33,23.18 0.59,1.14 -0.63,2.36 -1.77,1.77 z m 7.3,-95.47 c -4.12,6.41 -2.75,14.36 -3.41,19.59 -0.87,7 -3.89,12.64 -9.04,16.91 -3.38,2.8 -5.09,4.85 -7.43,8 -0.21,0.27 -0.48,0.44 -0.81,0.49 -0.16,0.02 -0.31,0.03 -0.46,0.03 -0.43,0.01 -0.54,-0.18 -0.33,-0.55 2.35,-4.19 5.59,-5.16 8.15,-8.04 1.01,-1.15 1.23,-2.43 0.65,-3.84 -1.5,-3.68 -8.05,-20.24 -4.65,-23.29 0.34,-0.31 0.89,-0.17 1.06,0.26 1.68,4.33 3.15,8.72 4.41,13.15 0.11,0.41 0.26,0.77 0.45,1.08 0.13,0.21 0.24,0.38 0.35,0.53 0.76,1.01 2.34,0.74 2.73,-0.47 4.1,-12.8 -2.91,-25.36 10.39,-34.03 0.64,-0.42 1.47,0.09 1.39,0.85 -0.38,3.43 -1.36,6.07 -3.45,9.33 z m 361.73,53.99 0.12,-0.36 c 0.59,-1.73 2.05,-2.79 3.27,-2.37 0.08,0.03 0.12,0.11 0.1,0.19 l -2.17,6.32 c -0.03,0.08 -0.11,0.12 -0.19,0.09 -1.22,-0.41 -1.73,-2.15 -1.13,-3.87 z m -39.57,-79.75 c 0.14,0.18 0.11,0.44 -0.06,0.59 -0.17,0.15 -0.42,0.14 -0.59,-0.01 -5.81,-5.45 -12.71,-8.5 -20.7,-9.16 -2.85,-0.24 -4.76,-1.3 -7.23,-2.47 -0.48,-0.23 -0.35,-0.95 0.18,-0.98 10.44,-0.69 21.88,3.31 28.4,12.03 z m -17.94,4.61 c -0.1,0.38 -0.3,0.45 -0.61,0.2 -3.51,-2.83 -7.92,-7.38 -12.62,-7.55 -0.57,-0.02 -0.69,-0.27 -0.37,-0.74 1.25,-1.84 1.54,-3.63 4.24,-3.42 4.48,0.36 10.56,6.87 9.36,11.51 z m -16.98,-65.18 0.94,-0.09 c 6.02,-0.61 10.97,-0.41 11.06,0.46 l 0.02,0.2 c 0.09,0.87 -4.72,2.07 -10.74,2.68 l -0.94,0.1 c -0.29,0.03 -0.54,-0.18 -0.57,-0.47 l -0.24,-2.31 c -0.02,-0.28 0.18,-0.54 0.47,-0.57 z m 0.8,57.69 c -4.42,1.85 -10.45,3.96 -13.07,-2.04 -0.81,-1.85 1.96,-3.43 3.51,-3.44 2.15,0 7.29,3.3 9.6,4.48 0.42,0.21 0.4,0.82 -0.04,1 z m -63.57,-75.96 0.02,-0.03 c 0,0 0.01,-0.01 0.01,-0.01 l 5.81,3.72 c 0,0 0.01,0.01 0.01,0.01 l -0.02,0.04 c -0.56,0.87 -2.25,0.78 -3.78,-0.19 l -0.3,-0.2 c -1.52,-0.97 -2.31,-2.47 -1.75,-3.34 z m -19.78,32.87 c 3.38,-3.23 13.77,-3.14 18.13,-2.67 12.63,1.36 26.33,12.95 38.69,5.39 5.05,-3.09 10.34,-4.7 15.87,-4.85 1.39,-0.03 1.6,-0.55 0.65,-1.56 -7.09,-7.46 -11.21,-13.18 -22.59,-11.96 -8.46,0.91 -15.12,-1.07 -21.48,-6.88 -1.07,-0.99 -0.89,-1.57 0.55,-1.74 0.19,-0.02 0.58,0 1.19,0.07 0.4,0.04 0.78,-0.01 1.15,-0.15 7.65,-2.95 15.04,-6.4 23.22,-5.44 0.81,0.09 0.93,1.22 0.16,1.49 l -15.63,5.38 c -0.47,0.17 -0.6,0.48 -0.39,0.94 3.29,7.07 27.88,-3.57 35.87,11.41 2.18,4.08 4.42,7.61 6.72,10.59 1.13,1.47 0.77,2.21 -1.08,2.2 -4.69,0 -9.14,0.14 -13.35,0.41 -4.96,0.33 -10.32,5.06 -14.05,5.94 -3.93,0.93 -7.83,1.13 -11.7,0.59 -6.35,-0.89 -13.22,-5.51 -19.05,-7.39 -7.16,-2.31 -14.63,-0.74 -22.15,-0.15 -0.88,0.07 -1.37,-1.01 -0.73,-1.62 z m 44.17,146.78 1.95,4.51 c 0.06,0.14 0.06,0.29 0.01,0.44 -0.45,1.34 -1.29,2.39 -2.52,3.15 -0.3,0.19 -0.7,0.05 -0.83,-0.28 -2.3,-5.96 -3.48,-11.6 1.2,-16.12 0.23,-0.23 0.37,-0.49 0.44,-0.8 0.49,-2.29 1.38,-4.42 2.66,-6.39 0.12,-0.19 0.29,-0.27 0.51,-0.22 6.14,1.2 -1.64,12.83 -3.35,15.1 -0.13,0.17 -0.16,0.41 -0.07,0.61 z m 2.08,-49.6 0.05,0.44 c 0.6,4.46 -1.35,8.4 -4.35,8.8 h -0.01 c -0.08,0.01 -0.16,-0.05 -0.17,-0.13 l -2.17,-16.29 c -0.01,-0.09 0.04,-0.16 0.13,-0.17 h 0.01 c 3,-0.4 5.91,2.89 6.51,7.35 z m -3.87,-37.89 1.4,-0.34 c 0.22,-0.05 0.45,0.08 0.5,0.31 l 0.02,0.07 c 1.78,7.38 2.77,13.47 2.2,13.61 l -0.15,0.04 c -0.57,0.14 -2.48,-5.74 -4.27,-13.12 v -0.06 c -0.07,-0.23 0.07,-0.46 0.3,-0.51 z m -13.67,-13.32 c -0.31,-2.44 0.59,-4.2 0.4,-6.74 -0.02,-0.26 0.08,-0.46 0.3,-0.59 0.25,-0.15 0.58,0 0.63,0.29 0.79,4.03 2.65,7.47 2.77,11.47 0.09,2.92 0.1,5.83 0.03,8.74 -0.01,0.34 -0.13,0.63 -0.37,0.87 -1.87,1.89 -1.49,4.24 -2.29,6.31 -0.98,2.53 -1.18,5.28 -2.15,7.53 -0.76,1.75 -1.72,3.02 -1.66,5.04 0.08,2.39 1.23,11.7 -3.74,9.96 -0.33,-0.11 -0.56,-0.33 -0.7,-0.66 -3.09,-7.22 2.9,-18.08 6,-26.8 1.79,-5.05 1.43,-10.31 0.78,-15.42 z m 0.2,58.82 0.29,0.07 c 3.46,0.82 5.74,3.69 5.09,6.42 h -0.01 l -12.79,-3.02 h -0.01 c 0.65,-2.74 3.97,-4.28 7.43,-3.47 z m -65.33,-6.71 c 0.04,0.35 -0.03,0.67 -0.22,0.97 -0.77,1.25 -1.85,1.67 -3.26,1.27 -0.3,-0.08 -0.55,-0.27 -0.72,-0.53 -2.3,-3.48 -1.95,-11.54 -1.64,-15.17 0.03,-0.31 0.15,-0.57 0.36,-0.8 1.97,-2.13 3.55,-4.51 4.75,-7.15 0.15,-0.35 0.41,-0.59 0.76,-0.72 0.88,-0.33 1.56,-0.28 2.05,0.17 0.31,0.29 0.47,0.77 0.46,1.46 -0.02,4.58 -2.94,6.62 -3.03,11.06 -0.07,3.16 0.1,6.31 0.49,9.44 z M 249.35,56.69 c -0.45,-0.31 -0.51,-0.95 -0.13,-1.34 2.96,-2.97 15.76,4.85 17.75,6.35 5.57,4.2 5.66,9.56 6.26,15.87 0.07,0.7 -0.61,1.23 -1.27,1.01 -5.56,-1.83 -0.78,-10.8 -8.62,-14.18 -4.99,-2.15 -9.66,-4.72 -13.99,-7.71 z m 19.81,131.58 c 3.91,-1.03 7.88,-1.45 11.91,-1.26 0.31,0.01 0.59,0.12 0.83,0.31 l 5.31,4.17 c 0.27,0.22 0.59,0.32 0.94,0.29 4.88,-0.29 11.01,-2.79 15.49,-0.27 0.58,0.32 0.53,1.17 -0.07,1.43 -1.31,0.58 -2.69,0.75 -4.14,0.52 -0.31,-0.05 -0.62,-0.03 -0.92,0.08 -4.33,1.54 -9.31,2.85 -12.91,-0.22 -5.58,-4.77 -12.72,-0.29 -16.64,-4.32 -0.23,-0.24 -0.12,-0.64 0.2,-0.73 z m 26.14,-52.11 c -1.03,-4.63 -2.47,-8.37 -4.33,-11.23 -2.79,-4.28 -10.08,0.48 -6.11,-9.46 0.13,-0.34 0.38,-0.54 0.73,-0.59 3.71,-0.54 11.14,11.21 12.94,14.21 2.88,4.82 2.51,10.43 1.72,15.74 -0.37,2.51 -1.98,3.87 -4.46,3.15 -0.32,-0.09 -0.55,-0.28 -0.69,-0.59 -1.41,-3.09 1.04,-7.41 0.2,-11.23 z m -11.62,-29.18 c -0.32,0.36 -0.85,0.43 -1.25,0.16 -0.39,-0.26 -0.53,-0.78 -0.32,-1.21 1.43,-2.87 2.88,-5.59 4.33,-8.17 2.16,-3.83 2.71,-8.28 4.54,-12.46 0.08,-0.19 0.28,-0.32 0.49,-0.31 l 0.98,0.04 c 0.41,0.01 0.6,0.22 0.55,0.63 -0.85,8.1 -3.96,15.21 -9.32,21.32 z M 288.37,80 c -1.56,-0.51 -1.44,-2.76 0.16,-3.11 6.64,-1.44 14.11,-1.32 20.04,2.53 2.74,1.79 12.07,8.55 10.76,12.5 -0.21,0.63 -1,0.84 -1.49,0.39 -3.38,-3.1 -6.64,-6.18 -9.77,-9.24 -4.04,-3.95 -14.89,-1.49 -19.7,-3.07 z m 29.41,17.04 c 0.18,-0.2 0.49,-0.23 0.71,-0.07 1.67,1.25 3.52,2.02 5.57,2.32 0.14,0.02 0.2,0.18 0.12,0.3 -2.3,3.26 -4.93,-0.21 -6.4,-1.84 -0.18,-0.2 -0.18,-0.51 0,-0.71 z M 262.97,49.46 c 5.08,0.88 10.06,-4.67 13.4,-6.71 7.08,-4.32 14.66,-5.63 22.75,-3.92 0.24,0.05 0.41,0.27 0.39,0.52 -0.02,0.24 -0.22,0.44 -0.47,0.45 -4.18,0.23 -8.39,0.89 -12.63,1.98 -6.46,1.65 -11.04,6.08 -15.74,10.49 -2.18,2.03 -12.97,0.76 -15.9,0.23 -16.06,-2.89 -29.45,-3.71 -41.94,8.43 -0.44,0.43 -0.9,0.45 -1.38,0.05 l -1.74,-1.47 c -0.33,-0.28 -0.33,-0.56 0.01,-0.83 16.53,-13.58 32.83,-12.73 53.25,-9.22 z m -59.88,-23.4 c 2.65,-0.71 5.49,-1.13 8.51,-1.26 3.4,-0.14 5.74,2.68 8.23,4.5 0.28,0.2 0.59,0.29 0.93,0.26 5.22,-0.35 10.58,-1.55 15.75,-0.42 0.86,0.19 0.89,1.41 0.04,1.64 -4.25,1.17 -13.77,4.12 -17.46,0.78 -3.48,-3.15 -11,-3.23 -15.63,-3.04 -0.64,0.03 -1.19,-0.43 -1.29,-1.06 -0.09,-0.63 0.3,-1.24 0.92,-1.4 z m -86.2,90.14 c -1.42,0.09 -2.86,0.49 -4.32,1.21 -4.06,2 -4.11,-4.8 -3.84,-7.18 0.04,-0.3 0.22,-0.57 0.48,-0.72 3.87,-2.21 8.04,-3.47 12.5,-3.76 0.28,-0.02 0.47,-0.16 0.56,-0.42 l 4.67,-13.37 c 0.06,-0.15 0.05,-0.32 -0.03,-0.47 -0.81,-1.6 -2.09,-2.52 -3.82,-2.75 -4.19,-0.55 -7.68,-2.15 -10.47,-4.78 -0.53,-0.49 -0.44,-0.66 0.27,-0.51 3.02,0.64 6.08,0.8 9.17,0.48 0.33,-0.03 0.66,0.05 0.94,0.23 1.76,1.16 7.11,5.34 9.12,3.82 7.89,-6.01 17.38,-7.95 26.35,-11.07 0.22,-0.08 0.47,0.02 0.58,0.23 0.11,0.21 0.04,0.47 -0.15,0.61 -6.66,4.74 -18.08,6.85 -25.24,14.55 -4.52,4.87 -6.14,11.65 -7.07,18.14 -0.05,0.33 0.06,0.67 0.29,0.92 2.88,3.05 9.48,2.41 12.86,1.44 0.35,-0.1 0.44,0.01 0.27,0.33 -1.69,3.27 -10.95,2.03 -13.99,1.1 -0.33,-0.1 -0.65,-0.1 -0.98,0 -2.94,0.92 -4.74,1.76 -8.15,1.97 z m 44.6,179.44 c -3.18,0.26 -6.11,1.21 -9.34,1.03 -7.38,-0.41 -23.72,-2.31 -26.24,-10.07 -1.12,-3.44 0.16,-6.39 3.84,-8.85 0.74,-0.4 1.16,-0.66 1.88,-1.31 2.65,-1.71 5.02,-3.17 8.35,-3.19 9.45,-0.07 19.75,0.87 27.12,5.33 11.3,6.86 4.8,16.19 -5.61,17.06 z m 15.77,-71.7 c -7.83,-5.82 -21.09,-18.05 -19.92,-28.84 0.43,-3.89 2.72,-8.23 5.11,-11.29 1.09,-1.39 3.33,-0.55 3.23,1.22 -0.21,3.78 -3.22,9.32 -4.26,13.29 -1.16,4.37 9.91,16.52 12.34,18.93 2.06,2.05 3.63,3.04 4.31,6.17 0.1,0.47 -0.43,0.81 -0.81,0.52 z m 16.7,-64.1 c -3.41,1.48 -6.72,2.03 -10.08,3.7 -0.32,0.16 -0.58,0.39 -0.77,0.68 l -4.61,7.05 c -0.66,1.01 -0.56,2.34 0.26,3.23 2.9,3.17 4.41,6.92 4.54,11.26 0.01,0.27 0.1,0.54 0.25,0.76 1.74,2.54 4.07,4.39 7,5.54 1.5,0.59 1.38,2.75 -0.18,3.18 -7.89,2.16 -11.95,-9.39 -12.86,-15.19 -0.05,-0.3 -0.16,-0.57 -0.33,-0.81 -3.44,-4.81 -9.13,-7.26 -15.01,-9.49 -10.09,-3.82 -11.74,-11.85 -12.21,-21.47 -0.07,-1.39 0.27,-2.43 1,-3.12 0.48,-0.45 1.25,-0.31 1.54,0.28 2.16,4.52 3.42,9.29 3.77,14.3 0.03,0.39 0.17,0.76 0.4,1.07 4.23,5.81 10.15,7.95 16.7,9.18 0.52,0.1 1,-0.31 0.98,-0.84 -0.36,-9.27 10.62,-13.38 18.27,-12.53 0.2,0.02 0.39,0.08 0.57,0.17 2.45,1.19 2.7,2.21 0.77,3.05 z m 8.78,-56.67 c -3.33,2.74 -7.74,4.27 -10.35,6.98 -1.83,1.89 -4,6.13 -6.33,7.14 -4.31,1.86 -8.49,3.2 -12.56,4.03 -1.04,0.21 -1.66,-1.11 -0.84,-1.78 4.08,-3.31 9.18,-4.21 13.91,-6.06 0.31,-0.12 0.56,-0.37 0.69,-0.68 1.08,-2.7 1.5,-5.12 3.93,-6.9 3.29,-2.41 6.98,-3.72 11.08,-3.93 0.65,-0.04 0.97,0.78 0.47,1.2 z m -2.29,-22.93 c -0.07,-0.3 0.05,-0.6 0.29,-0.78 8.32,-6.16 22.37,-10.89 32.28,-6.23 6.07,2.86 10.98,6.03 17.87,5.23 1.3,-0.15 2.18,0.38 2.63,1.61 0.1,0.29 0.1,0.57 0.01,0.86 -1.38,4.19 -3.35,8.02 -5.9,11.49 -0.98,1.34 -3.1,0.33 -2.66,-1.28 l 2.73,-10.06 c 0.07,-0.23 -0.02,-0.36 -0.25,-0.41 -4.66,-1 -9.22,-2.5 -13.67,-4.5 -9.68,-4.36 -21.73,0.06 -30.31,5.06 -1.36,0.8 -2.67,0.68 -3.02,-0.99 z m 50.87,28.99 c -1.66,5.96 -4.6,10.87 -5.5,17.15 -0.19,1.3 -1.18,2.39 -2.48,2.18 -1.04,-0.16 -1.83,-1.02 -1.92,-2.07 -0.55,-6.42 5.16,-13.43 8.57,-19.09 0.19,-0.31 0.61,-0.39 0.9,-0.17 0.55,0.41 0.69,1.08 0.43,2 z m -16.66,55.49 c -0.29,0.11 -0.55,0.05 -0.78,-0.17 -1.31,-1.3 -1.96,-2.65 -1.95,-4.05 0.07,-6.92 -1.25,-13.14 -3.96,-18.67 -0.17,-0.35 -0.12,-0.65 0.15,-0.92 l 1.23,-1.23 c 1.12,-1.12 3.03,-0.3 2.99,1.28 -0.06,2.27 1.37,3.69 1.9,5.43 1.25,4.06 6.6,16.08 0.42,18.33 z m 2,18.63 c 0,0 -0.02,0.07 -0.05,0.07 l -11.98,2.68 c 0,0 -0.07,-0.01 -0.07,-0.04 v -0.02 c -0.56,-2.48 1.51,-5.05 4.62,-5.75 l 0.84,-0.19 c 3.11,-0.69 6.08,0.75 6.63,3.23 v 0.02 z M 213.68,167.8 c 1.5,-3.77 6.78,-3.17 5.49,0.97 -1.22,3.96 -1.56,10 -3.06,11.89 -0.69,0.87 -2.08,0.55 -2.32,-0.53 -1.13,-5.16 -2.21,-7.07 -0.11,-12.33 z m -1.9,-18.11 -0.33,-0.09 c -0.38,-0.1 0.48,-4.67 1.93,-10.2 l 0.03,-0.12 c 0.04,-0.15 0.2,-0.24 0.35,-0.2 l 1.18,0.31 c 0.14,0.04 0.23,0.19 0.2,0.34 l -0.04,0.12 c -1.45,5.53 -2.94,9.94 -3.32,9.84 z m 4.96,74.05 c -0.4,0.26 -0.58,0.74 -0.45,1.19 0.51,1.83 0.16,3.39 -1.03,4.67 -0.35,0.37 -0.74,0.41 -1.15,0.11 -1.77,-1.27 -1.74,-2.77 -0.82,-4.74 1.52,-3.24 0.43,-4.85 -1.76,-7.71 -2.09,-2.72 -2.94,-6.05 -2.57,-9.98 0.13,-1.35 1.87,-1.82 2.65,-0.71 1.17,1.67 1.84,3.47 2.01,5.41 0.03,0.31 0.13,0.61 0.31,0.87 l 4.02,6.05 c 0.23,0.35 0.38,0.73 0.44,1.15 0.21,1.61 -0.34,2.84 -1.65,3.69 z m 4.7,44 c -0.44,0.38 -1.05,0.49 -1.59,0.29 -1.89,-0.71 -2.03,-1.8 -0.42,-3.27 7.37,-6.7 13.37,-7.7 22.17,-9.93 0.27,-0.07 0.55,-0.06 0.81,0.02 1.53,0.44 7.43,0.55 7.89,0.95 0.3,0.27 0.46,0.63 0.49,1.1 0.02,0.37 0.34,0.65 0.7,0.63 l 1.98,-0.12 c 0.33,-0.03 0.62,0.08 0.85,0.33 2.79,2.92 5.66,2.13 8.41,4.5 0.21,0.18 0.5,0.25 0.78,0.19 l 5.72,-1.31 c 0.21,-0.05 0.44,-0.03 0.65,0.05 1.56,0.63 2.22,1.63 1.97,3.02 -0.39,2.17 -2.03,6.21 -4.92,12.12 -0.21,0.44 -0.5,0.8 -0.85,1.08 -0.53,0.43 -0.92,0.69 -1.16,0.78 -1.46,0.54 -2.02,0.05 -1.67,-1.46 l 2.64,-11.54 c 0.12,-0.52 -0.28,-1.01 -0.81,-0.99 -3.31,0.1 -6.54,-1.89 -8.88,-2.63 -2.53,-0.81 -4.98,-1.78 -7.35,-2.92 -0.3,-0.14 -0.62,-0.19 -0.95,-0.16 -1.52,0.16 -3.1,-0.19 -4.41,-0.08 -8.41,0.69 -15.76,3.8 -22.05,9.35 z m 16.82,63.32 -2.21,0.9 c -2.38,0.97 -4.94,0.19 -5.73,-1.73 l -0.03,-0.08 c -0.04,-0.09 0.01,-0.21 0.11,-0.25 l 10.46,-4.27 c 0.1,-0.03 0.21,0.01 0.25,0.11 l 0.03,0.07 c 0.78,1.93 -0.51,4.28 -2.88,5.25 z m 51.62,-4.53 -2.85,0.47 c -0.3,0.05 -0.59,0.17 -0.83,0.37 -6.25,5.08 -9.51,9.75 -17.79,11.58 -1.19,0.26 -1.51,-0.25 -0.96,-1.54 0.07,-0.17 0.19,-0.32 0.33,-0.44 l 11.69,-9.06 c 0.85,-0.66 0.86,-1.33 0.03,-2.01 -2.79,-2.29 -10.04,-0.24 -14.07,1.47 -14.26,6.04 -19.69,-5.41 -27.42,-14.75 -0.25,-0.31 -0.18,-0.49 0.21,-0.55 5.41,-0.79 12.32,6.11 16.28,9.35 6.71,5.48 15.26,-1.19 22.51,-1.15 5.01,0.03 9.38,1.87 13.11,5.52 0.41,0.4 0.33,0.65 -0.24,0.74 z m -2.06,-67.21 c -0.23,-0.05 -0.39,-0.24 -0.41,-0.47 -0.51,-8.11 -1.58,-11.82 -9.25,-15.57 -3.85,-1.88 -7.69,-3.81 -11.5,-5.79 -0.38,-0.2 -0.54,-0.51 -0.47,-0.94 l 0.29,-1.69 c 0.05,-0.33 0.39,-0.52 0.7,-0.41 8.92,3.31 18.57,4.12 22.66,15.01 1.07,2.84 1.32,6.48 2.16,9.74 0.13,0.51 -0.33,0.98 -0.84,0.87 z m 4.56,69.65 c -0.41,-0.04 -0.71,-0.29 -0.69,-0.56 0.03,-0.27 0.38,-0.46 0.79,-0.41 0.41,0.04 0.71,0.29 0.69,0.56 -0.03,0.27 -0.38,0.46 -0.78,0.41 z m -3.85,-100.19 c -4.12,4.09 -10.32,4.17 -15.66,3.24 -8.96,-1.58 -19.65,-2.68 -28,0.53 -6.59,2.54 -10.22,6.12 -15.16,11.06 -0.26,0.26 -0.56,0.33 -0.91,0.21 l -3.16,-1.09 c -0.31,-0.11 -0.4,-0.5 -0.17,-0.73 10.11,-10.01 22.58,-16.65 37.43,-15.5 2.18,0.17 19.01,2.29 22.21,-0.8 8.42,-8.14 15.62,-13.44 27.97,-13 1.15,0.04 2.14,0.54 3.1,1.07 0.49,0.27 0.26,1.01 -0.29,0.97 -1.71,-0.11 -3.04,0.82 -4.65,0.84 -11.36,0.2 -15.68,6.25 -22.71,13.2 z m 11.34,105.11 -0.36,0.09 c -0.12,0.03 -0.25,-0.01 -0.34,-0.11 -1.31,-1.49 -2.98,-2.25 -5.02,-2.26 -0.65,-0.01 -0.89,-0.85 -0.35,-1.2 2.97,-1.92 4.38,1.42 6.19,2.91 0.33,0.27 0.29,0.46 -0.12,0.57 z m 3.15,-42.45 c -0.93,0.57 -2,-0.47 -1.47,-1.42 4.13,-7.33 6.75,-15.17 7.85,-23.52 0.05,-0.38 0.26,-0.55 0.64,-0.52 l 1.35,0.1 c 0.44,0.03 0.64,0.27 0.59,0.71 -0.64,5.48 -3.95,21.59 -8.96,24.65 z m 22.66,-29.64 c -0.23,-0.23 -0.5,-0.37 -0.83,-0.4 -5.47,-0.45 -10.93,-0.6 -16.37,-0.43 -1.88,0.06 -3.93,-0.49 -2.92,-2.99 0.12,-0.3 0.37,-0.54 0.68,-0.65 14.54,-5.13 25.69,1.94 33.08,13.99 0.32,0.53 0.05,1.22 -0.54,1.37 -1.36,0.35 -2.46,-0.15 -3.49,-1.16 -3.25,-3.19 -6.46,-6.44 -9.61,-9.73 z m 18.63,19.4 c -2.79,1.44 -4.97,0.94 -6.54,-1.5 -0.14,-0.21 -0.22,-0.44 -0.23,-0.69 -0.05,-0.87 0.35,-1.08 1.2,-0.63 2.37,1.24 1.46,1.98 5.35,1.95 1.29,0 1.37,0.28 0.22,0.87 z m 57.44,-45.37 c -0.06,0.39 -0.39,0.67 -0.78,0.67 -8.19,0.03 -13.11,0.01 -19.58,5.35 -5.45,4.51 -13.21,5.66 -19.72,3.88 -5.22,-1.42 -11.36,-5.33 -16.23,-6.56 -6.83,-1.72 -13.44,-0.66 -20.52,1.06 -1.27,0.31 -2.3,-0.03 -3.09,-1.02 -0.23,-0.27 -0.21,-0.54 0.04,-0.79 4.44,-4.35 15.89,-4.17 21.39,-3.58 11.03,1.2 25.19,11.71 35.38,3.9 3.46,-2.65 10.51,-7.23 15.04,-6.07 2.62,0.67 5.14,1.43 7.55,2.28 0.37,0.13 0.59,0.5 0.52,0.88 z m 3.82,-50.14 c -3.07,10.43 -10.55,17.89 -19.52,24.64 -0.24,0.18 -0.4,0.13 -0.47,-0.16 -0.45,-1.75 -0.26,-2.98 0.56,-3.68 3.42,-2.93 15.86,-15.91 15.51,-20.24 -0.36,-4.38 -2.46,-9.42 -4.05,-13.84 -0.31,-0.86 0.05,-1.83 0.86,-2.27 3.67,-2.02 6.74,7.67 7.32,10.17 0.4,1.75 0.33,3.54 -0.21,5.38 z m -16.82,-23.27 c -4.71,4.53 -3.89,12.63 -8.51,16.71 -1.96,1.72 -7.19,5 -8.65,0.66 -0.16,-0.47 0.07,-0.99 0.53,-1.18 2.63,-1.1 4.94,-2.65 6.92,-4.66 0.23,-0.23 0.37,-0.52 0.41,-0.84 0.37,-3.27 1.23,-6.36 2.58,-9.26 0.71,-1.51 2.71,-2.95 2.95,-5.28 0.03,-0.32 -0.04,-0.65 -0.22,-0.94 -2.74,-4.43 -4.93,-9.18 -9.63,-9.62 -2.61,-0.24 -4.76,-1.11 -6.43,-2.61 -0.24,-0.21 -0.36,-0.53 -0.32,-0.85 0.17,-1.33 1.01,-2.01 2.54,-2.04 7.9,-0.11 18.15,3.09 17.43,13.16 -0.04,0.5 0.42,0.89 0.91,0.78 7.82,-1.75 17.24,-4.76 18.3,-13.92 0.41,-3.53 1.3,-7.07 2.67,-10.62 0.5,-1.29 2.38,-1.11 2.63,0.25 1.09,6.01 0.04,11.79 -3.14,17.35 -3.99,6.97 -14.86,7.04 -20.97,12.91 z m 20.23,131.39 c -0.09,0.08 -0.22,0.08 -0.31,0 -0.08,-0.08 -0.1,-0.21 -0.03,-0.31 0.5,-0.74 1.26,-1.33 1.71,-1.97 4.97,-7.11 4.42,-18.45 3.19,-26.7 -0.15,-0.96 0.93,-1.63 1.73,-1.07 1.29,0.92 2.06,2.31 2.33,4.16 1.26,8.89 -1.53,19.57 -8.62,25.89 z m 8.92,-154.05 c -1.19,-6.05 -2.32,-12.11 -3.38,-18.18 -0.07,-0.39 0.09,-0.56 0.49,-0.51 8.78,1.03 3.45,20.08 12.16,24.37 9.56,4.72 17.44,10.1 19.12,21.28 0.12,0.79 -0.12,1.21 -0.72,1.25 -0.4,0.02 -0.76,-0.2 -0.92,-0.56 -1.44,-3.29 -3.2,-6.41 -5.28,-9.38 -3.46,-4.93 -8.9,-6.73 -14.12,-9.1 -5.1,-2.31 -6.32,-3.91 -7.35,-9.17 z m 50.08,113.34 -0.02,0.02 c -0.06,0.03 -0.13,0.01 -0.17,-0.05 l -5.63,-10.16 c -0.03,-0.06 -0.01,-0.14 0.05,-0.17 h 0.02 c 1.68,-0.94 3.97,-0.01 5.13,2.08 l 1.57,2.83 c 1.15,2.08 0.73,4.52 -0.95,5.45 z m 4.6,-36.75 -11.06,-11.38 c -0.74,-0.77 -1.39,-0.69 -1.94,0.22 -5.53,9.02 13.66,18.38 -0.96,32.8 -2.82,2.78 -7.22,5.97 -9.17,9.33 -0.17,0.3 -0.4,0.35 -0.68,0.15 -2.44,-1.69 -3.79,-3.53 -4.05,-5.51 -0.73,-5.54 -3.42,-9.08 -8,-12.04 -7.08,-4.57 -11.39,-11.4 -9.61,-20.13 1.69,-8.27 3.04,-15.08 -1.57,-22.68 -1.41,-2.32 -2.68,-4.69 -3.83,-7.11 -0.37,-0.78 0.4,-1.6 1.2,-1.3 5.92,2.25 8.92,12.08 9.88,17.6 1.49,8.53 -3.33,17.15 1.05,25.46 2.4,4.54 7.45,5.71 10.63,9.61 1.74,2.14 3.23,4.4 4.46,6.77 0.35,0.68 1.28,0.79 1.78,0.2 2.82,-3.31 8.39,-10.1 8.28,-14.43 -0.12,-4.44 -3.78,-9.65 -4.49,-14.08 -0.85,-5.39 0.31,-10.56 3.5,-15.53 0.25,-0.39 0.74,-0.54 1.16,-0.36 0.42,0.18 0.66,0.64 0.55,1.09 -0.39,1.61 0.37,3.08 1.7,4.16 5.51,4.45 10.86,9.41 12.03,16.73 0.08,0.49 -0.52,0.78 -0.86,0.43 z m 9.92,-18.41 c -0.24,-11.43 -1.13,-22.48 -2.68,-33.14 -0.99,-6.83 -5.06,-12.56 -5.95,-19.52 -0.46,-3.55 0.34,-8.83 -2.34,-11.56 -0.32,-0.33 -0.86,-0.3 -1.14,0.07 -3.67,4.77 -8.28,12.18 -9.3,18.07 -0.77,4.44 0.68,9.93 1.51,14.57 0.25,1.44 -0.28,2.48 -1.85,2.32 -0.3,-0.03 -0.47,-0.2 -0.51,-0.5 -0.39,-3.47 -0.93,-6.91 -1.61,-10.34 -1.37,-6.92 2.99,-14.62 6.07,-21.05 1.93,-4.02 -0.22,-9.85 -1.81,-15.06 -0.62,-2.03 -1.82,-4.3 -3.3,-5.48 -5.56,-4.42 -13.06,-10.49 -16.12,-16.99 -1.91,-4.05 -5.01,-16.25 -8.87,-18.16 -1.56,-0.77 -2.86,-0.35 -3.9,1.28 -0.49,0.76 -0.55,1.72 -0.17,2.54 l 3.36,7.32 c 0.13,0.27 0.08,0.6 -0.12,0.83 -7.23,8.25 4.49,12.97 2.11,20.29 -0.1,0.3 -0.49,0.38 -0.7,0.13 -2.51,-3.02 -5.89,-6.79 -6.08,-10.89 -0.17,-3.68 0.65,-7.34 -0.32,-10.9 -0.81,-2.96 -1.3,-5.98 -1.49,-9.06 -0.03,-0.42 -0.25,-0.66 -0.67,-0.72 l -8.08,-1.17 c -1.44,-0.21 -1.94,0.38 -1.5,1.77 0.3,0.95 0.25,2.49 -0.54,3.36 -0.55,0.62 -1.18,0.8 -1.87,0.54 -0.41,-0.15 -0.82,-0.53 -1.25,-1.16 -4.03,-5.99 -6.69,-10.78 -14.1,-14.33 -0.78,-0.38 -1.34,-1.13 -1.9,-1.68 -1.08,-1.04 -0.21,-2.87 1.28,-2.68 7.11,0.87 12.23,4.48 15.36,10.82 0.41,0.82 1.38,1.16 2.2,0.77 4.65,-2.21 9.35,-2.26 14.11,-0.16 1.23,0.54 2.53,-0.58 2.18,-1.87 -0.45,-1.63 -1.29,-3.22 -2.54,-4.76 -3.5,-4.31 -6.8,-8.78 -9.89,-13.39 -3.17,-4.7 -6.85,-6.44 -12.39,-9.52 -6.13,-3.41 -11.37,-8.47 -17.96,-11.36 -12.78,-5.59 -25.96,-12.2 -38.46,-16.47 -13.97,-4.76 -26.62,-6.92 -40.1,-9.69 -7.22,-1.49 -14.21,-0.57 -20.15,-1.2 -4.81,-0.51 -9.54,-1.43 -14.2,-2.77 -1.93,-0.55 -3.91,-0.28 -5.58,0.54 -0.38,0.18 -0.44,0.7 -0.12,0.98 3.51,3.05 6.98,6.09 10.41,9.11 6,5.28 14.22,5.99 21.65,7.57 1.47,0.31 3.03,0.44 3.79,1.97 0.17,0.36 -0.13,0.77 -0.52,0.71 -4.6,-0.7 -8.89,-1.61 -13.8,-2.48 -7.43,-1.33 -12.91,-6.55 -18.65,-10.77 -4.96,-3.64 -10.29,-3.77 -16.6,-4.16 -9.36,-0.58 -17.44,5.44 -26.89,7.65 -5.46,1.28 -11.77,0.92 -17.6,0.91 -12.8,-0.03 -24.04,4.04 -33.73,12.19 -10.06,8.47 -17.32,14.13 -22.93,20.59 -0.93,1.08 -2.05,1.86 -3.35,2.35 -6.67,2.51 -13.33,5.03 -19.99,7.55 -5.8,2.19 -8.5,4.16 -12.19,9.4 -2.24,3.18 -5.09,5.75 -8.54,7.72 -0.1,0.07 -0.19,0.16 -0.24,0.27 l -1.11,2.29 c -0.11,0.23 -0.28,0.35 -0.53,0.37 -1.21,0.09 -2,0.5 -2.36,1.25 -3.04,6.25 -6.53,12.24 -10.48,17.96 -1.75,2.55 -4.85,5.57 -6.54,8.78 -6.09,11.52 -13.93,26.4 -18.91,39.01 -6.24,15.82 -9.69,30.83 -13.22,48.78 -0.82,4.16 -0.17,8.6 -0.53,12.1 -0.72,6.96 -2.85,13.15 -4.04,20.25 -0.13,0.78 0.81,1.27 1.37,0.72 5.21,-5.1 11.95,-10.82 14.91,-17.75 1.94,-4.52 2.45,-10.2 3.55,-15.4 0.17,-0.83 1.01,-1.33 1.82,-1.1 l 0.77,0.21 c 0.47,0.13 0.63,0.43 0.47,0.9 -1.36,3.91 -2.46,7.9 -3.31,11.95 -1.75,8.38 -7.98,14.02 -12.26,19.43 -2.07,2.61 -2.95,5.58 -2.62,8.92 0.03,0.34 -0.05,0.68 -0.24,0.96 -0.12,0.17 -0.23,0.33 -0.33,0.49 -0.65,0.95 -1.33,1.87 -2.01,2.83 -0.03,0.04 -0.05,0.07 -0.08,0.1 0,0.01 0,0.02 -0.02,0.03 -0.01,0.02 -0.02,0.02 -0.02,0.02 -1.41,1.99 -2.84,4.14 -4.11,6.94 0.29,0.23 0.57,0.36 0.82,0.37 l 4.62,-5.77 c 0.22,-0.27 0.44,-0.31 0.67,-0.14 0.05,0.04 0.08,0.07 0.11,0.1 l 3.76,3.84 c 0.23,0.24 0.24,0.62 0.02,0.87 -2.66,3.01 -6.79,4.39 -8.32,7.55 l -4.32,13.12 c 2.94,0.33 9.74,0.03 12.51,1.56 0.09,0.05 0.17,0.1 0.26,0.16 20.98,13.82 1.11,25.98 -13.88,23.57 -0.3,-0.05 -0.45,0.08 -0.45,0.39 v 17.59 c 0,0.75 0.56,1.38 1.3,1.47 4.05,0.47 5.1,-2.91 7.49,-4.81 5.89,-4.66 11.73,-8.73 17.53,-12.22 4.33,-2.61 15.61,-1.7 18.18,-1.56 7.01,0.38 8.94,5.26 13.94,8.96 6.97,5.15 14.05,10.13 21.26,14.93 4.97,3.3 8,5.89 9.11,7.76 2.7,4.57 1.42,9.58 -3.85,15.03 2.34,2.58 4.88,5.1 7.61,7.56 3.36,3.03 5.77,5.54 7.24,7.53 3.45,4.67 5.13,9.2 7.14,14.05 1.87,4.49 2.68,9.22 4.55,13.75 1.29,3.11 2.13,5.7 2.52,7.76 1.72,8.93 2.37,17.39 1.95,25.4 -0.1,1.96 -0.2,3.89 -0.29,5.8 -0.08,1.7 -0.15,3.37 -0.22,5.02 -0.06,1.22 -0.11,2.42 -0.15,3.62 -0.1,2.48 -0.19,4.92 -0.27,7.31 -0.03,0.98 -0.06,1.95 -0.09,2.92 -0.03,0.96 -0.06,1.92 -0.08,2.87 -0.03,0.95 -0.05,1.89 -0.07,2.82 -0.04,1.55 -0.07,3.08 -0.09,4.58 -0.09,4.83 -0.12,9.43 -0.1,13.81 0,1.03 0.01,2.05 0.01,3.05 0.01,0.17 0.01,0.34 0.01,0.52 0.01,0.62 0.01,1.23 0.02,1.84 h 42.36 c -0.05,-0.18 -0.1,-0.37 -0.15,-0.55 -0.01,-0.04 -0.02,-0.07 -0.03,-0.11 -0.1,-0.4 -0.2,-0.81 -0.28,-1.21 -0.11,-0.49 -0.2,-0.97 -0.3,-1.45 -0.09,-0.47 -0.18,-0.93 -0.29,-1.38 -0.06,-0.3 -0.13,-0.59 -0.21,-0.87 -0.15,-0.6 -0.33,-1.19 -0.56,-1.75 -2.32,-5.87 -3.7,-9.67 -4.14,-11.4 -1.33,-5.24 1.84,-8.56 2.03,-13.41 0.01,-0.3 -0.24,-0.55 -0.54,-0.54 -1.05,0.03 -1.66,-0.39 -1.81,-1.24 -0.52,-2.93 -0.71,-7.4 -0.7,-11.1 0.1,-29.4 -2.02,-58.26 -4.26,-87.54 -0.18,-2.29 -1.84,-3.36 -1.91,-5.67 -0.21,-6.51 -0.79,-12.98 -1.74,-19.4 l -0.39,-3.63 c -0.03,-0.33 -0.16,-0.62 -0.37,-0.88 l -1.89,-2.31 c -0.72,-0.48 -1.21,-1.07 -1.47,-1.78 -0.12,-0.31 -0.01,-0.45 0.32,-0.42 4.73,0.43 8.54,2.29 11.45,5.56 4.46,5.02 9.3,9.7 13.56,14.86 4.04,4.89 12.14,6.36 17.72,9.39 10.47,5.69 23.43,7.76 34.92,10.73 17.6,4.54 37.87,4.74 55.22,2.86 4.83,-0.52 10.11,-3.3 15.24,-3.69 4.31,-0.33 8.4,0.3 12.75,-0.36 1.35,-0.2 2.19,-0.64 2.53,-1.31 0.47,-0.94 0.26,-1.68 -0.65,-2.21 -3.66,-2.17 -7.14,-4.4 -10.45,-6.69 -5.89,-4.08 -13.05,-2.96 -21.73,-2.93 -0.45,0 -0.82,-0.08 -1.1,-0.24 -0.42,-0.24 -0.67,-0.54 -0.74,-0.91 -0.12,-0.58 0.31,-1.12 0.9,-1.14 3.38,-0.14 6.8,-0.32 10.25,-0.54 7.81,-0.49 12.08,2.91 18.19,6.27 6.16,3.38 13.46,2.8 19.7,0.19 6,-2.51 11.61,-9.49 15.93,-14.55 0.21,-0.25 0.48,-0.38 0.81,-0.39 7.46,-0.32 18.46,-4.35 17.04,-13.7 -0.07,-0.45 -0.33,-0.66 -0.78,-0.61 l -6.31,0.66 c -0.68,0.07 -1.28,-0.47 -1.28,-1.15 -0.02,-4.58 5.74,-3.51 9.42,-3.31 0.33,0.02 0.61,-0.08 0.86,-0.31 1.44,-1.36 4.01,-4.63 4.49,-4.71 0.33,-0.05 0.41,0.06 0.23,0.35 -1.12,1.77 -3.59,6.77 -0.76,7.88 5.65,2.19 11.75,-0.7 16.42,-4.14 0.55,-0.4 1.33,-0.13 1.51,0.53 0.77,2.92 -2.63,5.02 -4.86,6.07 -3.58,1.67 -9.61,1.08 -13.56,1 -0.29,-0.01 -0.54,0.19 -0.61,0.47 -0.88,3.36 -2.4,6.41 -4.55,9.15 -0.23,0.29 -0.19,0.54 0.12,0.74 5.73,3.89 14.24,-2.86 18.33,-6.55 3.87,-3.49 8.09,-6.47 12.67,-8.92 3.31,-1.77 5.37,-3.05 6.16,-3.82 5.39,-5.23 5.54,-14.77 3.29,-21.4 -0.12,-0.35 -0.36,-0.48 -0.73,-0.39 -1.81,0.45 -3.64,0.49 -5.5,0.12 -0.94,-0.18 -1.22,-1.38 -0.47,-1.97 5.11,-3.98 8.84,-8.9 11.17,-14.77 0.84,-2.09 0.88,-3.67 2.89,-5.17 0.27,-0.21 0.52,-0.18 0.75,0.07 4.88,5.54 -1.04,13.75 -5.52,17.45 -0.79,0.65 -0.82,1.85 -0.08,2.55 0.95,0.89 2.12,1.24 2.79,2.6 1.59,3.21 2.15,6.58 1.68,10.11 -0.08,0.62 0.57,1.08 1.12,0.79 2.6,-1.35 4.76,-2.72 6.75,-5.04 3.79,-4.41 7.65,-8.76 11.58,-13.05 2.96,-3.24 5.01,-7.8 5.38,-11.7 0.51,-5.31 4.66,-9.61 5.68,-15.06 2.93,-15.7 6.79,-31 6.45,-47.25 z"
         style="fill:#2cb98f"
         id="path28" />
      <path
         d="m 63.89,401.51 c -5.59,-0.85 -10.98,-1.52 -16.16,-2.01 -1.51,-0.14 -2.54,1.5 -1.74,2.78 l 2.33,3.78 c 0.17,0.28 0.24,0.58 0.19,0.91 -1.07,8.37 -2.18,16.73 -3.31,25.08 -1.11,8.24 -0.92,15.88 -0.55,23.95 0.02,0.33 0.14,0.64 0.36,0.92 0.29,0.37 0.47,0.32 0.52,-0.14 0.88,-7.88 1.1,-16.82 3.37,-24.37 0.42,-1.4 0.78,-3.03 1.08,-4.89 1.85,-11.55 7.43,-17.23 16.15,-26.05 0.03,-0.16 0.01,-0.33 -0.05,-0.5 -0.95,0.44 -1.68,0.62 -2.19,0.54 z"
         style="fill:#2cb98f"
         id="path30" />
      <path
         d="m 41.92,472.16 h -5.24 l 0.76,-7.84 c 0.11,0.13 0.22,0.28 0.33,0.42 0.03,-1.67 1.11,-3.26 2.21,-4.9 0.19,-0.29 0.34,-0.27 0.46,0.05 1.49,4 1.99,8.09 1.48,12.27 z"
         style="fill:#2cb98f"
         id="path32" />
    </g>
    <g
       id="g146"
       transform="matrix(0.88954906,0,0,0.88954906,27.06172,52.15162)">
      <path
         d="m 214.92,139.39 -1.18,-0.31 c -0.15,-0.04 -0.31,0.05 -0.35,0.2 l -0.03,0.12 c -1.45,5.53 -2.31,10.1 -1.93,10.2 l 0.33,0.09 c 0.38,0.1 1.87,-4.31 3.32,-9.84 l 0.04,-0.12 c 0.03,-0.15 -0.06,-0.3 -0.2,-0.34 z"
         id="path36" />
      <path
         d="m 167.09,278.58 c -7.37,-4.46 -17.67,-5.4 -27.12,-5.33 -3.33,0.02 -5.7,1.48 -8.35,3.19 -1.05,0.72 -1.12,0.76 -1.88,1.31 -3.68,2.46 -4.96,5.41 -3.84,8.85 2.52,7.76 18.86,9.66 26.24,10.07 3.23,0.18 6.16,-0.77 9.34,-1.03 10.41,-0.87 16.91,-10.2 5.61,-17.06 z m -8.32,7.29 c -7.37,2.52 -15.03,2.82 -21.83,-1.18 -1.02,-0.59 -0.65,-2.14 0.52,-2.23 5.31,-0.41 16.55,-0.5 21.41,2.56 0.34,0.21 0.28,0.72 -0.1,0.85 z"
         id="path38" />
      <path
         d="m 236.5,29.14 c -5.17,-1.13 -10.53,0.07 -15.75,0.42 -0.34,0.03 -0.65,-0.06 -0.93,-0.26 -2.49,-1.82 -4.83,-4.64 -8.23,-4.5 -3.02,0.13 -5.86,0.55 -8.51,1.26 -0.62,0.16 -1.01,0.77 -0.92,1.4 0.1,0.63 0.65,1.09 1.29,1.06 4.63,-0.19 12.15,-0.11 15.63,3.04 3.69,3.34 13.21,0.39 17.46,-0.78 0.85,-0.23 0.82,-1.45 -0.04,-1.64 z"
         id="path40" />
      <path
         d="m 326.6,32.12 c 1.53,0.97 3.22,1.06 3.78,0.19 l 0.02,-0.04 c 0,0 0,-0.01 -0.01,-0.01 l -5.81,-3.72 c 0,0 -0.01,0 -0.01,0.01 l -0.02,0.03 c -0.56,0.87 0.23,2.37 1.75,3.34 z"
         id="path42" />
      <path
         d="m 304.77,61.45 c -0.64,0.61 -0.15,1.69 0.73,1.62 7.52,-0.59 14.99,-2.16 22.15,0.15 5.83,1.88 12.7,6.5 19.05,7.39 3.87,0.54 7.77,0.34 11.7,-0.59 3.73,-0.88 9.09,-5.61 14.05,-5.94 4.21,-0.27 8.66,-0.41 13.35,-0.41 1.85,0.01 2.21,-0.73 1.08,-2.2 -2.3,-2.98 -4.54,-6.51 -6.72,-10.59 -7.99,-14.98 -32.58,-4.34 -35.87,-11.41 -0.21,-0.46 -0.08,-0.77 0.39,-0.94 l 15.63,-5.38 c 0.77,-0.27 0.65,-1.4 -0.16,-1.49 -8.18,-0.96 -15.57,2.49 -23.22,5.44 -0.37,0.14 -0.75,0.19 -1.15,0.15 -0.61,-0.07 -1,-0.09 -1.19,-0.07 -1.44,0.17 -1.62,0.75 -0.55,1.74 6.36,5.81 13.02,7.79 21.48,6.88 11.38,-1.22 15.5,4.5 22.59,11.96 0.95,1.01 0.74,1.53 -0.65,1.56 -5.53,0.15 -10.82,1.76 -15.87,4.85 -12.36,7.56 -26.06,-4.03 -38.69,-5.39 -4.36,-0.47 -14.75,-0.56 -18.13,2.67 z"
         id="path44" />
      <path
         d="m 299.11,38.83 c -8.09,-1.71 -15.67,-0.4 -22.75,3.92 -3.34,2.04 -8.32,7.59 -13.4,6.71 -20.42,-3.51 -36.72,-4.36 -53.25,9.22 -0.34,0.27 -0.34,0.55 -0.01,0.83 l 1.74,1.47 c 0.48,0.4 0.94,0.38 1.38,-0.05 12.49,-12.14 25.88,-11.32 41.94,-8.43 2.93,0.53 13.72,1.8 15.9,-0.23 4.7,-4.41 9.28,-8.84 15.74,-10.49 4.24,-1.09 8.45,-1.75 12.63,-1.98 0.25,-0.01 0.45,-0.21 0.47,-0.45 0.02,-0.25 -0.15,-0.47 -0.39,-0.52 z"
         id="path46" />
      <path
         d="m 399.34,47.42 -0.02,-0.2 c -0.09,-0.87 -5.04,-1.07 -11.06,-0.46 l -0.94,0.09 c -0.29,0.03 -0.49,0.29 -0.47,0.57 l 0.24,2.31 c 0.03,0.29 0.28,0.5 0.57,0.47 l 0.94,-0.1 c 6.02,-0.61 10.83,-1.81 10.74,-2.68 z"
         id="path48" />
      <path
         d="m 266.96,61.7 c -1.99,-1.5 -14.79,-9.32 -17.75,-6.35 -0.38,0.39 -0.32,1.03 0.13,1.34 4.33,2.99 9,5.56 13.99,7.71 7.84,3.38 3.06,12.35 8.62,14.18 0.66,0.22 1.34,-0.31 1.27,-1.01 -0.6,-6.31 -0.69,-11.67 -6.26,-15.87 z"
         id="path50" />
      <path
         d="m 200.44,80.24 c 0.35,1.67 1.66,1.79 3.02,0.99 8.58,-5 20.63,-9.42 30.31,-5.06 4.45,2 9.01,3.5 13.67,4.5 0.23,0.05 0.32,0.18 0.25,0.41 l -2.73,10.06 c -0.44,1.61 1.68,2.62 2.66,1.28 2.55,-3.47 4.52,-7.3 5.9,-11.49 0.09,-0.29 0.09,-0.57 -0.01,-0.86 -0.45,-1.23 -1.33,-1.76 -2.63,-1.61 -6.89,0.8 -11.8,-2.37 -17.87,-5.23 -9.91,-4.66 -23.96,0.07 -32.28,6.23 -0.24,0.18 -0.36,0.48 -0.29,0.78 z"
         id="path52" />
      <path
         d="m 288.52,76.89 c -1.6,0.35 -1.72,2.6 -0.16,3.11 4.81,1.58 15.66,-0.88 19.7,3.07 3.13,3.06 6.39,6.14 9.77,9.24 0.49,0.45 1.28,0.24 1.49,-0.39 1.31,-3.95 -8.02,-10.71 -10.76,-12.5 -5.93,-3.85 -13.4,-3.97 -20.04,-2.53 z"
         id="path54" />
      <path
         d="m 122.26,105.33 c -0.09,0.26 -0.28,0.4 -0.56,0.42 -4.46,0.29 -8.63,1.55 -12.5,3.76 -0.26,0.15 -0.44,0.42 -0.48,0.72 -0.27,2.38 -0.22,9.18 3.84,7.18 1.46,-0.72 2.9,-1.12 4.32,-1.21 3.41,-0.21 5.21,-1.05 8.15,-1.97 0.33,-0.1 0.65,-0.1 0.98,0 3.04,0.93 12.3,2.17 13.99,-1.1 0.17,-0.32 0.08,-0.43 -0.27,-0.33 -3.38,0.97 -9.98,1.61 -12.86,-1.44 -0.23,-0.25 -0.34,-0.59 -0.29,-0.92 0.93,-6.49 2.55,-13.27 7.07,-18.14 7.16,-7.7 18.58,-9.81 25.24,-14.55 0.19,-0.14 0.26,-0.4 0.15,-0.61 -0.11,-0.21 -0.36,-0.31 -0.58,-0.23 -8.97,3.12 -18.46,5.06 -26.35,11.07 -2.01,1.52 -7.36,-2.66 -9.12,-3.82 -0.28,-0.18 -0.61,-0.26 -0.94,-0.23 -3.09,0.32 -6.15,0.16 -9.17,-0.48 -0.71,-0.15 -0.8,0.02 -0.27,0.51 2.79,2.63 6.28,4.23 10.47,4.78 1.73,0.23 3.01,1.15 3.82,2.75 0.08,0.15 0.09,0.32 0.03,0.47 z"
         id="path56" />
      <path
         d="m 292.44,85.03 -0.98,-0.04 c -0.21,-0.01 -0.41,0.12 -0.49,0.31 -1.83,4.18 -2.38,8.63 -4.54,12.46 -1.45,2.58 -2.9,5.3 -4.33,8.17 -0.21,0.43 -0.07,0.95 0.32,1.21 0.4,0.27 0.93,0.2 1.25,-0.16 5.36,-6.11 8.47,-13.22 9.32,-21.32 0.05,-0.41 -0.14,-0.62 -0.55,-0.63 z"
         id="path58" />
      <path
         d="m 393.84,95.39 c -0.53,0.03 -0.66,0.75 -0.18,0.98 2.47,1.17 4.38,2.23 7.23,2.47 7.99,0.66 14.89,3.71 20.7,9.16 0.17,0.15 0.42,0.16 0.59,0.01 0.17,-0.15 0.2,-0.41 0.06,-0.59 -6.52,-8.72 -17.96,-12.72 -28.4,-12.03 z"
         id="path60" />
      <path
         d="m 324.17,99.59 c 0.08,-0.12 0.02,-0.28 -0.12,-0.3 -2.05,-0.3 -3.9,-1.07 -5.57,-2.32 -0.22,-0.16 -0.53,-0.13 -0.71,0.07 -0.18,0.2 -0.18,0.51 0,0.71 1.47,1.63 4.1,5.1 6.4,1.84 z"
         id="path62" />
      <path
         d="m 388.12,104.54 c 0.44,-0.18 0.46,-0.79 0.04,-1 -2.31,-1.18 -7.45,-4.48 -9.6,-4.48 -1.55,0.01 -4.32,1.59 -3.51,3.44 2.62,6 8.65,3.89 13.07,2.04 z"
         id="path64" />
      <path
         d="m 326.7,149.64 c 0.14,0.33 0.37,0.55 0.7,0.66 4.97,1.74 3.82,-7.57 3.74,-9.96 -0.06,-2.02 0.9,-3.29 1.66,-5.04 0.97,-2.25 1.17,-5 2.15,-7.53 0.8,-2.07 0.42,-4.42 2.29,-6.31 0.24,-0.24 0.36,-0.53 0.37,-0.87 0.07,-2.91 0.06,-5.82 -0.03,-8.74 -0.12,-4 -1.98,-7.44 -2.77,-11.47 -0.05,-0.29 -0.38,-0.44 -0.63,-0.29 -0.22,0.13 -0.32,0.33 -0.3,0.59 0.19,2.54 -0.71,4.3 -0.4,6.74 0.65,5.11 1.01,10.37 -0.78,15.42 -3.1,8.72 -9.09,19.58 -6,26.8 z"
         id="path66" />
      <path
         d="m 403.69,112.23 c 0.31,0.25 0.51,0.18 0.61,-0.2 1.2,-4.64 -4.88,-11.15 -9.36,-11.51 -2.7,-0.21 -2.99,1.58 -4.24,3.42 -0.32,0.47 -0.2,0.72 0.37,0.74 4.7,0.17 9.11,4.72 12.62,7.55 z"
         id="path68" />
      <path
         d="m 187.25,112.8 c -0.13,0.31 -0.38,0.56 -0.69,0.68 -4.73,1.85 -9.83,2.75 -13.91,6.06 -0.82,0.67 -0.2,1.99 0.84,1.78 4.07,-0.83 8.25,-2.17 12.56,-4.03 2.33,-1.01 4.5,-5.25 6.33,-7.14 2.61,-2.71 7.02,-4.24 10.35,-6.98 0.5,-0.42 0.18,-1.24 -0.47,-1.2 -4.1,0.21 -7.79,1.52 -11.08,3.93 -2.43,1.78 -2.85,4.2 -3.93,6.9 z"
         id="path70" />
      <path
         d="m 100.41,117.28 c 0.93,-0.05 1.54,-2.96 1.35,-6.5 -0.19,-3.54 -1.09,-6.37 -2.02,-6.32 -0.93,0.05 -1.54,2.96 -1.35,6.5 0.19,3.54 1.09,6.37 2.02,6.32 z"
         id="path72" />
      <path
         d="m 243.33,128.56 c 1.3,0.21 2.29,-0.88 2.48,-2.18 0.9,-6.28 3.84,-11.19 5.5,-17.15 0.26,-0.92 0.12,-1.59 -0.43,-2 -0.29,-0.22 -0.71,-0.14 -0.9,0.17 -3.41,5.66 -9.12,12.67 -8.57,19.09 0.09,1.05 0.88,1.91 1.92,2.07 z"
         id="path74" />
      <path
         d="m 295.09,147.39 c 0.14,0.31 0.37,0.5 0.69,0.59 2.48,0.72 4.09,-0.64 4.46,-3.15 0.79,-5.31 1.16,-10.92 -1.72,-15.74 -1.8,-3 -9.23,-14.75 -12.94,-14.21 -0.35,0.05 -0.6,0.25 -0.73,0.59 -3.97,9.94 3.32,5.18 6.11,9.46 1.86,2.86 3.3,6.6 4.33,11.23 0.84,3.82 -1.61,8.14 -0.2,11.23 z"
         id="path76" />
      <path
         d="m 349.05,120.71 c -0.05,-0.23 -0.28,-0.36 -0.5,-0.31 l -1.4,0.34 c -0.23,0.05 -0.37,0.28 -0.31,0.51 v 0.06 c 1.8,7.38 3.71,13.26 4.28,13.12 l 0.15,-0.04 c 0.57,-0.14 -0.42,-6.23 -2.2,-13.61 z"
         id="path78" />
      <path
         d="m 427.15,145.44 c -8.71,-4.29 -3.38,-23.34 -12.16,-24.37 -0.4,-0.05 -0.56,0.12 -0.49,0.51 1.06,6.07 2.19,12.13 3.38,18.18 1.03,5.26 2.25,6.86 7.35,9.17 5.22,2.37 10.66,4.17 14.12,9.1 2.08,2.97 3.84,6.09 5.28,9.38 0.16,0.36 0.52,0.58 0.92,0.56 0.6,-0.04 0.84,-0.46 0.72,-1.25 -1.68,-11.18 -9.56,-16.56 -19.12,-21.28 z"
         id="path80" />
      <path
         d="m 100.08,133.18 c 2.09,-3.26 3.07,-5.9 3.45,-9.33 0.08,-0.76 -0.75,-1.27 -1.39,-0.85 -13.3,8.67 -6.29,21.23 -10.39,34.03 -0.39,1.21 -1.97,1.48 -2.73,0.47 -0.11,-0.15 -0.22,-0.32 -0.35,-0.53 -0.19,-0.31 -0.34,-0.67 -0.45,-1.08 -1.26,-4.43 -2.73,-8.82 -4.41,-13.15 -0.17,-0.43 -0.72,-0.57 -1.06,-0.26 -3.4,3.05 3.15,19.61 4.65,23.29 0.58,1.41 0.36,2.69 -0.65,3.84 -2.56,2.88 -5.8,3.85 -8.15,8.04 -0.21,0.37 -0.1,0.56 0.33,0.55 0.15,0 0.3,-0.01 0.46,-0.03 0.33,-0.05 0.6,-0.22 0.81,-0.49 2.34,-3.15 4.05,-5.2 7.43,-8 5.15,-4.27 8.17,-9.91 9.04,-16.91 0.66,-5.23 -0.71,-13.18 3.41,-19.59 z"
         id="path82" />
      <path
         d="m 409.7,149.51 c 3.18,-5.56 4.23,-11.34 3.14,-17.35 -0.25,-1.36 -2.13,-1.54 -2.63,-0.25 -1.37,3.55 -2.26,7.09 -2.67,10.62 -1.06,9.16 -10.48,12.17 -18.3,13.92 -0.49,0.11 -0.95,-0.28 -0.91,-0.78 0.72,-10.07 -9.53,-13.27 -17.43,-13.16 -1.53,0.03 -2.37,0.71 -2.54,2.04 -0.04,0.32 0.08,0.64 0.32,0.85 1.67,1.5 3.82,2.37 6.43,2.61 4.7,0.44 6.89,5.19 9.63,9.62 0.18,0.29 0.25,0.62 0.22,0.94 -0.24,2.33 -2.24,3.77 -2.95,5.28 -1.35,2.9 -2.21,5.99 -2.58,9.26 -0.04,0.32 -0.18,0.61 -0.41,0.84 -1.98,2.01 -4.29,3.56 -6.92,4.66 -0.46,0.19 -0.69,0.71 -0.53,1.18 1.46,4.34 6.69,1.06 8.65,-0.66 4.62,-4.08 3.8,-12.18 8.51,-16.71 6.11,-5.87 16.98,-5.94 20.97,-12.91 z"
         id="path84" />
      <path
         d="m 270.89,139.03 c 0.01,-0.69 -0.15,-1.17 -0.46,-1.46 -0.49,-0.45 -1.17,-0.5 -2.05,-0.17 -0.35,0.13 -0.61,0.37 -0.76,0.72 -1.2,2.64 -2.78,5.02 -4.75,7.15 -0.21,0.23 -0.33,0.49 -0.36,0.8 -0.31,3.63 -0.66,11.69 1.64,15.17 0.17,0.26 0.42,0.45 0.72,0.53 1.41,0.4 2.49,-0.02 3.26,-1.27 0.19,-0.3 0.26,-0.62 0.22,-0.97 -0.39,-3.13 -0.56,-6.28 -0.49,-9.44 0.09,-4.44 3.01,-6.48 3.03,-11.06 z"
         id="path86" />
      <path
         d="m 233.87,164.55 c 0.23,0.22 0.49,0.28 0.78,0.17 6.18,-2.25 0.83,-14.27 -0.42,-18.33 -0.53,-1.74 -1.96,-3.16 -1.9,-5.43 0.04,-1.58 -1.87,-2.4 -2.99,-1.28 l -1.23,1.23 c -0.27,0.27 -0.32,0.57 -0.15,0.92 2.71,5.53 4.03,11.75 3.96,18.67 -0.01,1.4 0.64,2.75 1.95,4.05 z"
         id="path88" />
      <path
         d="m 190.36,195.24 c 1.56,-0.43 1.68,-2.59 0.18,-3.18 -2.93,-1.15 -5.26,-3 -7,-5.54 -0.15,-0.22 -0.24,-0.49 -0.25,-0.76 -0.13,-4.34 -1.64,-8.09 -4.54,-11.26 -0.82,-0.89 -0.92,-2.22 -0.26,-3.23 l 4.61,-7.05 c 0.19,-0.29 0.45,-0.52 0.77,-0.68 3.36,-1.67 6.67,-2.22 10.08,-3.7 1.93,-0.84 1.68,-1.86 -0.77,-3.05 -0.18,-0.09 -0.37,-0.15 -0.57,-0.17 -7.65,-0.85 -18.63,3.26 -18.27,12.53 0.02,0.53 -0.46,0.94 -0.98,0.84 -6.55,-1.23 -12.47,-3.37 -16.7,-9.18 -0.23,-0.31 -0.37,-0.68 -0.4,-1.07 -0.35,-5.01 -1.61,-9.78 -3.77,-14.3 -0.29,-0.59 -1.06,-0.73 -1.54,-0.28 -0.73,0.69 -1.07,1.73 -1,3.12 0.47,9.62 2.12,17.65 12.21,21.47 5.88,2.23 11.57,4.68 15.01,9.49 0.17,0.24 0.28,0.51 0.33,0.81 0.91,5.8 4.97,17.35 12.86,15.19 z"
         id="path90" />
      <path
         d="m 344.51,151.28 h -0.01 c -0.09,0.01 -0.14,0.08 -0.13,0.17 l 2.17,16.29 c 0.01,0.08 0.09,0.14 0.17,0.13 h 0.01 c 3,-0.4 4.95,-4.34 4.35,-8.8 l -0.05,-0.44 c -0.6,-4.46 -3.51,-7.75 -6.51,-7.35 z"
         id="path92" />
      <path
         d="m 213.66,167.8 c -2.1,5.26 -1.02,7.17 0.11,12.33 0.24,1.08 1.63,1.4 2.32,0.53 1.5,-1.89 1.84,-7.93 3.06,-11.89 1.29,-4.14 -3.99,-4.74 -5.49,-0.97 z"
         id="path94" />
      <path
         d="m 333.68,166.24 c -3.46,-0.81 -6.78,0.73 -7.43,3.46 h 0.01 c 0,0 12.79,3.03 12.79,3.03 h 0.01 c 0.65,-2.73 -1.63,-5.6 -5.09,-6.42 z"
         id="path96" />
      <path
         d="m 405.76,180.31 c -0.58,-2.5 -3.65,-12.19 -7.32,-10.17 -0.81,0.44 -1.17,1.41 -0.86,2.27 1.59,4.42 3.69,9.46 4.05,13.84 0.35,4.33 -12.09,17.31 -15.51,20.24 -0.82,0.7 -1.01,1.93 -0.56,3.68 0.07,0.29 0.23,0.34 0.47,0.16 8.97,-6.75 16.45,-14.21 19.52,-24.64 0.54,-1.84 0.61,-3.63 0.21,-5.38 z"
         id="path98" />
      <path
         d="m 448.91,238.14 c -1.23,-2.37 -2.72,-4.63 -4.46,-6.77 -3.18,-3.9 -8.23,-5.07 -10.63,-9.61 -4.38,-8.31 0.44,-16.93 -1.05,-25.46 -0.96,-5.52 -3.96,-15.35 -9.88,-17.6 -0.8,-0.3 -1.57,0.52 -1.2,1.3 1.15,2.42 2.42,4.79 3.83,7.11 4.61,7.6 3.26,14.41 1.57,22.68 -1.78,8.73 2.53,15.56 9.61,20.13 4.58,2.96 7.27,6.5 8,12.04 0.26,1.98 1.61,3.82 4.05,5.51 0.28,0.2 0.51,0.15 0.68,-0.15 1.95,-3.36 6.35,-6.55 9.17,-9.33 14.62,-14.42 -4.57,-23.78 0.96,-32.8 0.55,-0.91 1.2,-0.99 1.94,-0.22 l 11.06,11.38 c 0.34,0.35 0.94,0.06 0.86,-0.43 -1.17,-7.32 -6.52,-12.28 -12.03,-16.73 -1.33,-1.08 -2.09,-2.55 -1.7,-4.16 0.11,-0.45 -0.13,-0.91 -0.55,-1.09 -0.42,-0.18 -0.91,-0.03 -1.16,0.36 -3.19,4.97 -4.35,10.14 -3.5,15.53 0.71,4.43 4.37,9.64 4.49,14.08 0.11,4.33 -5.46,11.12 -8.28,14.43 -0.5,0.59 -1.43,0.48 -1.78,-0.2 z"
         id="path100" />
      <path
         d="m 224.54,186.04 v 0.02 c 0,0 0.05,0.05 0.08,0.04 l 11.98,-2.68 c 0,0 0.06,-0.04 0.05,-0.07 v -0.02 c -0.56,-2.48 -3.53,-3.92 -6.64,-3.23 l -0.84,0.19 c -3.11,0.7 -5.18,3.27 -4.63,5.75 z"
         id="path102" />
      <path
         d="m 173.75,217.25 c -2.43,-2.41 -13.5,-14.56 -12.34,-18.93 1.04,-3.97 4.05,-9.51 4.26,-13.29 0.1,-1.77 -2.14,-2.61 -3.23,-1.22 -2.39,3.06 -4.68,7.4 -5.11,11.29 -1.17,10.79 12.09,23.02 19.92,28.84 0.38,0.29 0.91,-0.05 0.81,-0.52 -0.68,-3.13 -2.25,-4.12 -4.31,-6.17 z"
         id="path104" />
      <path
         d="m 463.13,190.95 2.17,-6.32 c 0.02,-0.08 -0.02,-0.16 -0.1,-0.19 -1.22,-0.42 -2.68,0.64 -3.27,2.37 l -0.12,0.36 c -0.6,1.72 -0.09,3.46 1.13,3.87 0.08,0.03 0.16,-0.01 0.19,-0.09 z"
         id="path106" />
      <path
         d="m 281.06,187.01 c -4.03,-0.19 -8,0.23 -11.91,1.26 -0.32,0.09 -0.43,0.49 -0.2,0.73 3.92,4.03 11.06,-0.45 16.64,4.32 3.6,3.07 8.58,1.76 12.91,0.22 0.3,-0.11 0.61,-0.13 0.92,-0.08 1.45,0.23 2.83,0.06 4.14,-0.52 0.6,-0.26 0.65,-1.11 0.07,-1.43 -4.48,-2.52 -10.61,-0.02 -15.49,0.27 -0.35,0.03 -0.67,-0.07 -0.94,-0.29 l -5.31,-4.17 c -0.24,-0.19 -0.52,-0.3 -0.83,-0.31 z"
         id="path108" />
      <path
         d="m 352.36,192.52 c -0.22,-0.05 -0.39,0.03 -0.51,0.22 -1.28,1.97 -2.17,4.1 -2.66,6.39 -0.07,0.31 -0.21,0.57 -0.44,0.8 -4.68,4.52 -3.5,10.16 -1.2,16.12 0.13,0.33 0.53,0.47 0.83,0.28 1.23,-0.76 2.07,-1.81 2.52,-3.15 0.05,-0.15 0.05,-0.3 -0.01,-0.44 l -1.95,-4.51 c -0.09,-0.2 -0.06,-0.44 0.07,-0.61 1.71,-2.27 9.49,-13.9 3.35,-15.1 z"
         id="path110" />
      <path
         d="m 87.79,203.27 c -0.23,-0.01 -0.44,0.15 -0.48,0.38 -1.49,8.03 -0.28,15.65 3.61,22.85 0.59,1.09 1.21,1.81 1.86,2.15 1.14,0.59 2.36,-0.63 1.77,-1.77 -3.75,-7.25 -5.86,-14.97 -6.33,-23.18 -0.01,-0.23 -0.2,-0.42 -0.43,-0.43 z"
         id="path112" />
      <path
         d="m 216.72,223.74 c 1.31,-0.85 1.86,-2.08 1.65,-3.69 -0.06,-0.42 -0.21,-0.8 -0.44,-1.15 l -4.02,-6.05 c -0.18,-0.26 -0.28,-0.56 -0.31,-0.87 -0.17,-1.94 -0.84,-3.74 -2.01,-5.41 -0.78,-1.11 -2.52,-0.64 -2.65,0.71 -0.37,3.93 0.48,7.26 2.57,9.98 2.19,2.86 3.28,4.47 1.76,7.71 -0.92,1.97 -0.95,3.47 0.82,4.74 0.41,0.3 0.8,0.26 1.15,-0.11 1.19,-1.28 1.54,-2.84 1.03,-4.67 -0.13,-0.45 0.05,-0.93 0.45,-1.19 z"
         id="path114" />
      <path
         d="m 315.87,214.74 c 0.55,0.04 0.78,-0.7 0.29,-0.97 -0.96,-0.53 -1.95,-1.03 -3.1,-1.07 -12.35,-0.44 -19.55,4.86 -27.97,13 -3.2,3.09 -20.03,0.97 -22.21,0.8 -14.85,-1.15 -27.32,5.49 -37.43,15.5 -0.23,0.23 -0.14,0.62 0.17,0.73 l 3.16,1.09 c 0.35,0.12 0.65,0.05 0.91,-0.21 4.94,-4.94 8.57,-8.52 15.16,-11.06 8.35,-3.21 19.04,-2.11 28,-0.53 5.34,0.93 11.54,0.85 15.66,-3.24 7.03,-6.95 11.35,-13 22.71,-13.2 1.61,-0.02 2.94,-0.95 4.65,-0.84 z"
         id="path116" />
      <path
         d="m 361.65,245.73 c 6.51,1.78 14.27,0.63 19.72,-3.88 6.47,-5.34 11.39,-5.32 19.58,-5.35 0.39,0 0.72,-0.28 0.78,-0.67 0.07,-0.38 -0.15,-0.75 -0.52,-0.88 -2.41,-0.85 -4.93,-1.61 -7.55,-2.28 -4.53,-1.16 -11.58,3.42 -15.04,6.07 -10.19,7.81 -24.35,-2.7 -35.38,-3.9 -5.5,-0.59 -16.95,-0.77 -21.39,3.58 -0.25,0.25 -0.27,0.52 -0.04,0.79 0.79,0.99 1.82,1.33 3.09,1.02 7.08,-1.72 13.69,-2.78 20.52,-1.06 4.87,1.23 11.01,5.14 16.23,6.56 z"
         id="path118" />
      <path
         d="m 291.98,259.2 c -0.84,-3.26 -1.09,-6.9 -2.16,-9.74 -4.09,-10.89 -13.74,-11.7 -22.66,-15.01 -0.31,-0.11 -0.65,0.08 -0.7,0.41 l -0.29,1.69 c -0.07,0.43 0.09,0.74 0.47,0.94 3.81,1.98 7.65,3.91 11.5,5.79 7.67,3.75 8.74,7.46 9.25,15.57 0.02,0.23 0.18,0.42 0.41,0.47 l 3.34,0.75 c 0.51,0.11 0.97,-0.36 0.84,-0.87 z"
         id="path120" />
      <path
         d="m 462.21,242.73 h -0.02 c -0.06,0.04 -0.08,0.12 -0.05,0.18 l 5.63,10.16 c 0.04,0.06 0.11,0.08 0.17,0.05 l 0.02,-0.02 c 1.68,-0.93 2.1,-3.37 0.95,-5.45 l -1.57,-2.83 c -1.16,-2.09 -3.45,-3.02 -5.13,-2.09 z"
         id="path122" />
      <path
         d="m 219.83,268.03 c 0.54,0.2 1.15,0.09 1.59,-0.29 6.29,-5.55 13.64,-8.66 22.05,-9.35 1.31,-0.11 2.89,0.24 4.41,0.08 0.33,-0.03 0.65,0.02 0.95,0.16 2.37,1.14 4.82,2.11 7.35,2.92 2.34,0.74 5.57,2.73 8.88,2.63 0.53,-0.02 0.93,0.47 0.81,0.99 l -2.64,11.54 c -0.35,1.51 0.21,2 1.67,1.46 0.24,-0.09 0.63,-0.35 1.16,-0.78 0.35,-0.28 0.64,-0.64 0.85,-1.08 2.89,-5.91 4.53,-9.95 4.92,-12.12 0.25,-1.39 -0.41,-2.39 -1.97,-3.02 -0.21,-0.08 -0.44,-0.1 -0.65,-0.05 l -5.72,1.31 c -0.28,0.06 -0.57,-0.01 -0.78,-0.19 -2.75,-2.37 -5.62,-1.58 -8.41,-4.5 -0.23,-0.25 -0.52,-0.36 -0.85,-0.33 l -1.98,0.12 c -0.36,0.02 -0.68,-0.26 -0.7,-0.63 -0.03,-0.47 -0.19,-0.83 -0.49,-1.1 -0.46,-0.4 -6.36,-0.51 -7.89,-0.95 -0.26,-0.08 -0.54,-0.09 -0.81,-0.02 -8.8,2.23 -14.8,3.23 -22.17,9.93 -1.61,1.47 -1.47,2.56 0.42,3.27 z"
         id="path124" />
      <path
         d="m 324.83,261.4 c 0.33,0.03 0.6,0.17 0.83,0.4 3.15,3.29 6.36,6.54 9.61,9.73 1.03,1.01 2.13,1.51 3.49,1.16 0.59,-0.15 0.86,-0.84 0.54,-1.37 -7.39,-12.05 -18.54,-19.12 -33.08,-13.99 -0.31,0.11 -0.56,0.35 -0.68,0.65 -1.01,2.5 1.04,3.05 2.92,2.99 5.44,-0.17 10.9,-0.02 16.37,0.43 z"
         id="path126" />
      <path
         d="m 408.96,293.81 c 7.09,-6.32 9.88,-17 8.62,-25.89 -0.27,-1.85 -1.04,-3.24 -2.33,-4.16 -0.8,-0.56 -1.88,0.11 -1.73,1.07 1.23,8.25 1.78,19.59 -3.19,26.7 -0.45,0.64 -1.21,1.23 -1.71,1.97 -0.07,0.1 -0.05,0.23 0.03,0.31 0.09,0.08 0.22,0.08 0.31,0 z"
         id="path128" />
      <path
         d="m 303,291.44 c 5.01,-3.06 8.32,-19.17 8.96,-24.65 0.05,-0.44 -0.15,-0.68 -0.59,-0.71 l -1.35,-0.1 c -0.38,-0.03 -0.59,0.14 -0.64,0.52 -1.1,8.35 -3.72,16.19 -7.85,23.52 -0.53,0.95 0.54,1.99 1.47,1.42 z"
         id="path130" />
      <path
         d="m 344.29,281.2 c 1.15,-0.59 1.07,-0.88 -0.22,-0.87 -3.89,0.03 -2.98,-0.71 -5.35,-1.95 -0.85,-0.45 -1.25,-0.24 -1.2,0.63 0.01,0.25 0.09,0.48 0.23,0.69 1.57,2.44 3.75,2.94 6.54,1.5 z"
         id="path132" />
      <path
         d="m 279.45,327.91 -11.69,9.06 c -0.14,0.12 -0.26,0.27 -0.33,0.44 -0.55,1.29 -0.23,1.8 0.96,1.54 8.28,-1.83 11.54,-6.5 17.79,-11.58 0.24,-0.2 0.53,-0.32 0.83,-0.37 l 2.85,-0.47 c 0.57,-0.09 0.65,-0.34 0.24,-0.74 -3.73,-3.65 -8.1,-5.49 -13.11,-5.52 -7.25,-0.04 -15.8,6.63 -22.51,1.15 -3.96,-3.24 -10.87,-10.14 -16.28,-9.35 -0.39,0.06 -0.46,0.24 -0.21,0.55 7.73,9.34 13.16,20.79 27.42,14.75 4.03,-1.71 11.28,-3.76 14.07,-1.47 0.83,0.68 0.82,1.35 -0.03,2.01 z"
         id="path134" />
      <path
         d="m 236.03,331.96 2.21,-0.9 c 2.37,-0.97 3.66,-3.32 2.88,-5.25 l -0.03,-0.07 c -0.04,-0.1 -0.15,-0.14 -0.25,-0.11 l -10.46,4.27 c -0.1,0.04 -0.15,0.16 -0.11,0.25 l 0.03,0.08 c 0.79,1.92 3.35,2.7 5.73,1.73 z"
         id="path136" />
      <path
         d="m 293.78,330.41 c -0.54,0.35 -0.3,1.19 0.35,1.2 2.04,0.01 3.71,0.77 5.02,2.26 0.09,0.1 0.22,0.14 0.34,0.11 l 0.36,-0.09 c 0.41,-0.11 0.45,-0.3 0.12,-0.57 -1.81,-1.49 -3.22,-4.83 -6.19,-2.91 z"
         id="path138" />
      <path
         d="m 292.36,328.97 c 0.41,0.04 0.76,-0.14 0.79,-0.41 0.03,-0.27 -0.28,-0.52 -0.69,-0.56 -0.41,-0.04 -0.76,0.14 -0.79,0.41 -0.03,0.27 0.28,0.52 0.69,0.56 z"
         id="path140" />
      <path
         d="m 40.51,323.34 c 0.65,-1.38 1.64,-2.28 2.21,-2.02 0.57,0.27 0.5,1.61 -0.15,2.99 -0.65,1.38 -1.64,2.28 -2.21,2.02 -0.57,-0.27 -0.5,-1.61 0.15,-2.99 z m 9.47,104.19 c -0.3,1.86 -0.66,3.49 -1.08,4.89 -2.27,7.55 -2.49,16.49 -3.37,24.37 -0.05,0.46 -0.23,0.51 -0.52,0.14 -0.22,-0.28 -0.34,-0.59 -0.36,-0.92 -0.37,-8.07 -0.56,-15.71 0.55,-23.95 1.13,-8.35 2.24,-16.71 3.31,-25.08 0.05,-0.33 0.09,-0.99 0,-1.7 l 0.72,-2.86 c 0.28,-1.55 0.21,-2.75 0.21,-2.75 5.18,0.49 8.85,0.99 14.44,1.84 0.4,0.06 1.87,-0.06 2.24,-0.07 0,0 0,0.02 0,0.03 -8.72,8.82 -14.3,14.5 -16.15,26.05 z m 23.93,-35.85 c -7.43,0.45 -14.84,0.24 -22.22,-0.63 -1.89,-0.23 -4.09,-0.24 -6.6,-0.05 -4.53,0.35 -9.45,-0.43 -13.6,-0.49 -3.99,-0.05 -8.08,-0.38 -12.27,-0.98 -0.43,-0.06 -0.52,-0.65 -0.13,-0.83 1.32,-0.62 3.18,-0.45 4.39,-0.51 12.09,-0.65 24.13,-0.27 36.12,1.16 3.77,0.45 9.2,1.94 14.05,2.08 0.13,0.01 0.23,0.04 0.31,0.1 0.12,0.09 0.1,0.14 -0.05,0.15 z m 48.2,-42.17 c -10.31,9.38 -19.54,23.16 -27.14,34.85 -0.17,0.27 -0.41,0.46 -0.7,0.57 -3.23,1.27 -6.58,1.78 -10.07,1.54 -0.47,-0.03 -0.54,-0.22 -0.22,-0.56 10.63,-11.41 22.76,-22.62 33.49,-34.57 0.83,-0.92 2.14,-1.7 3.94,-2.34 0.63,-0.07 0.86,0.1 0.7,0.51 z m -71.75,-33.43 4.6,-0.51 c 0.43,-0.05 0.7,0.46 0.42,0.79 l -4.73,5.63 c -0.15,0.18 -0.43,0.01 -0.35,-0.21 0.64,-1.75 0.53,-3.4 -0.33,-4.95 -0.25,-0.44 -0.12,-0.69 0.39,-0.75 z m 8.21,1.37 c 5.4,-5.49 13.87,-9.31 20.55,-13.11 0.09,-0.05 0.21,-0.03 0.28,0.06 0.07,0.08 0.06,0.21 -0.01,0.29 -2.11,2.35 -6.16,6.24 -3.19,9.5 2.37,2.62 6.74,-0.28 8.88,-1.81 3.95,-2.83 8.26,-4.98 12.93,-6.45 0.33,-0.11 0.62,-0.04 0.87,0.19 l 4.38,4.09 18.74,13.47 c 3.2,1.43 10.02,5.37 8.04,9.76 -0.12,0.28 -0.5,0.34 -0.7,0.1 l -7.42,-8.74 -0.23,0.27 c -0.18,0.21 -0.18,0.42 0.01,0.61 0.71,0.73 0.79,1.12 0.25,1.17 0.08,3.25 0.76,6.5 2.04,9.75 0.21,0.53 0.39,0.52 0.55,-0.03 l 0.94,-3.2 c 0.24,-0.83 1.38,-0.92 1.76,-0.15 l 0.99,1.99 c 0.17,0.34 0.12,0.75 -0.14,1.03 -6.53,7.25 -14.61,11.59 -24.24,13.02 -0.13,0.02 -0.17,0.1 -0.14,0.25 0.03,0.19 0.15,0.27 0.34,0.22 l 13.91,-3.33 c 0.35,-0.08 0.56,0.37 0.27,0.58 -5.45,4 -11.49,6.72 -18.12,8.16 -0.26,0.05 -0.52,0 -0.73,-0.14 -0.37,-0.23 -0.44,-0.11 -0.22,0.36 0.05,0.12 0.18,0.19 0.3,0.17 3.78,-0.49 7.08,-1.13 9.91,-1.93 0.92,-0.26 2.57,-1.06 3.96,-1.26 0.15,-0.02 0.18,0.03 0.07,0.14 L 81,386.11 c -0.21,0.23 -0.48,0.33 -0.8,0.3 -2.68,-0.25 -5.42,-0.21 -8,-0.88 -18.86,-4.89 -37.47,-5.5 -56.79,-3.12 -2.73,0.33 -5.23,1.28 -7.51,2.85 -0.74,0.51 -1.76,0.3 -2.24,-0.46 -3.79,-6.06 13.63,-22.71 18.03,-26.2 0.1,-0.08 0.24,0.04 0.18,0.15 l -6.73,12.26 c -0.03,0.06 -0.01,0.13 0.04,0.16 0.05,0.04 0.12,0.03 0.16,-0.02 4.63,-5.46 8.52,-11.2 13.72,-16.22 6.4,-6.17 10.8,-15.26 14.93,-23.06 2.93,-5.54 8.24,-10 12.58,-14.42 z m -5.11,-39.86 c 0.03,-0.32 0.31,-0.56 0.63,-0.52 2.9,0.33 5.62,1.21 8.15,2.62 0.41,0.23 0.46,0.8 0.1,1.1 -2.58,2.16 -5.52,2.7 -8.83,1.62 -0.28,-0.09 -0.45,-0.36 -0.42,-0.65 z m -1.97,0.12 c 0.72,0.95 0.44,2.38 -0.63,3.2 l -0.1,0.08 c -0.18,0.14 -0.45,0.11 -0.6,-0.08 l -2.1,-2.73 c -0.14,-0.19 -0.11,-0.46 0.08,-0.6 l 0.1,-0.07 c 1.07,-0.83 2.52,-0.74 3.25,0.2 z m 437.66,-92.39 c -0.58,-3.84 -0.62,-7.53 -1,-11.33 -0.69,-6.87 -3.71,-13.93 -5.94,-20.54 -0.62,-1.82 -0.91,-5.15 -0.87,-9.99 0.13,-15.76 -11.53,-27.65 -23,-36.91 -2.93,-2.37 -6.52,-6.37 -8.24,-10.45 -2.46,-5.83 -4.76,-11.85 -7.74,-17.19 -3.93,-7.09 -8.3,-13.89 -13.11,-20.42 -2.48,-3.38 -5.56,-7.97 -8.64,-9.97 -9.38,-6.08 -18.52,-12.66 -28.7,-17.34 -12.88,-5.92 -25.74,-12.25 -39.14,-16.91 -12.62,-4.39 -27.8,-6.9 -41.62,-10.29 -4.43,-1.09 -8.89,-1.3 -13.38,-0.65 -0.39,0.05 -0.76,0.01 -1.12,-0.12 -1.87,-0.7 -3.7,-0.61 -5.48,0.28 -0.28,0.14 -0.6,0.15 -0.89,0.03 -13.88,-5.59 -30.04,-4.1 -43.6,1.62 -7.29,3.07 -15.36,7.45 -22.86,7.55 -8.02,0.11 -16.82,-0.54 -24.15,1.18 -19.1,4.49 -31.48,17.46 -45.88,29.54 -1.24,1.04 -2.55,3.07 -3.93,6.09 -0.13,0.29 -0.34,0.55 -0.61,0.73 -7.05,4.86 -19.59,2.21 -24.05,9.1 -3.99,6.16 -9.01,11.21 -15.06,15.15 -7.94,5.17 -12.4,14.24 -17.36,20.77 -3.19,4.21 -5.32,7.28 -6.39,9.23 -9.88,18.03 -20.18,37.79 -25.61,57.67 -2.49,9.13 -4.92,18.27 -7.29,27.42 -2.32,9.01 -0.75,18.49 -3.33,27.53 -1.08,3.77 -1.7,6.44 -1.85,7.99 -0.58,5.8 -0.8,20.52 3.52,24.96 0.01,0.24 0.16,0.49 0.44,0.75 -3.7,8.52 -5.89,13.94 -6.57,16.27 -1.8,6.15 -9.92,7.22 -10.77,13.57 -0.66,4.9 5.68,8.26 8.2,11.78 0.2,0.27 0.3,0.6 0.28,0.94 -0.24,5.26 -0.14,18.51 -2.98,22.6 -3.03,4.35 -4.98,7.65 -4.95,13.3 0.02,3.16 0.31,6.01 -1.22,8.86 -2.61,4.85 -6.21,8.77 -10.79,11.77 -1.88,1.23 -3.34,2.43 -4.37,3.62 -6.78,7.79 -14.24,16.73 -18.44,26.2 -2.65,5.98 3.16,11.77 8.25,13.04 3.2,0.79 9.52,1.71 18.95,2.75 4.8,0.53 9.53,1.33 14.18,2.42 0.82,0.19 1.47,0.82 1.69,1.63 0.7,2.57 1.17,5.33 1.4,8.27 0.25,3.2 -2.24,6.56 -2.92,9.63 -1.31,5.93 -2.17,11.91 -2.58,17.96 -0.73,11.01 -3.18,21.11 -5.7,31.59 -0.33,1.38 -0.27,3.46 -1.04,5.13 0,0.01 -0.01,0.02 -0.02,0.04 h 3.95 l 1.36,-7.19 c 0.25,-1.71 0.67,-3.44 1.8,-5.13 0.19,-0.29 0.34,-0.27 0.46,0.05 1.49,4 1.99,8.09 1.48,12.27 h 6.5 c -0.23,-1.26 -0.39,-2.42 -0.48,-3.49 -0.02,-0.26 -0.04,-0.51 -0.05,-0.76 -0.03,-0.25 -0.04,-0.49 -0.04,-0.73 0,-0.13 -0.01,-0.26 -0.01,-0.39 -0.01,-0.55 0,-1.06 0.04,-1.55 1.01,-14.07 2.74,-27.17 5.21,-39.31 2.16,-10.64 13.47,-24.55 24.45,-26.9 5.51,-1.17 10.96,-2.54 16.36,-4.09 4.17,-1.2 4.03,-3.51 6.82,-5.99 6.66,-5.89 12.16,-12.26 14.86,-20.06 2.34,-6.73 6.68,-11.59 8.95,-18.24 1.09,-3.21 2.52,-5.82 4.29,-7.83 1.05,-0.17 1.66,-0.01 1.81,0.46 0.99,2.97 2.47,5.48 4.46,7.54 2.86,2.96 4.34,6.47 7.36,9.34 0.26,0.25 0.45,0.55 0.56,0.89 0.38,1.1 1.01,2.04 1.88,2.83 0.24,0.21 0.44,0.46 0.6,0.73 l 2.11,3.65 2.37,4.05 c 5.67,10.94 9.07,22.53 10.2,34.76 0.37,4.06 0.32,10.71 -0.15,19.96 -0.77,15.04 -1.15,30.08 -1.15,45.13 h 3.67 c -0.01,-0.61 -0.01,-1.22 -0.02,-1.84 0,-0.18 0,-0.35 -0.01,-0.52 0,-1 -0.01,-2.02 -0.01,-3.05 -0.02,-4.38 0.01,-8.98 0.1,-13.81 0.02,-1.5 0.05,-3.03 0.09,-4.58 0.02,-0.93 0.04,-1.87 0.07,-2.82 0.02,-0.95 0.05,-1.91 0.08,-2.87 0.03,-0.97 0.06,-1.94 0.09,-2.92 0.08,-2.39 0.17,-4.83 0.27,-7.31 0.04,-1.2 0.09,-2.4 0.15,-3.62 0.07,-1.65 0.14,-3.32 0.22,-5.02 0.09,-1.91 0.19,-3.84 0.29,-5.8 0.42,-8.01 -0.23,-16.47 -1.95,-25.4 -0.39,-2.06 -1.23,-4.65 -2.52,-7.76 -1.87,-4.53 -2.68,-9.26 -4.55,-13.75 -2.01,-4.85 -3.69,-9.38 -7.14,-14.05 -1.47,-1.99 -3.88,-4.5 -7.24,-7.53 -2.73,-2.46 -5.27,-4.98 -7.61,-7.56 5.27,-5.45 6.55,-10.46 3.85,-15.03 -1.11,-1.87 -4.14,-4.46 -9.11,-7.76 -7.21,-4.8 -14.29,-9.78 -21.26,-14.93 -5,-3.7 -6.93,-8.58 -13.94,-8.96 -2.57,-0.14 -13.85,-1.05 -18.18,1.56 -5.8,3.49 -11.64,7.56 -17.53,12.22 -2.39,1.9 -3.44,5.28 -7.49,4.81 -0.74,-0.09 -1.3,-0.72 -1.3,-1.47 v -17.59 c 0,-0.31 0.15,-0.44 0.45,-0.39 14.99,2.41 34.86,-9.75 13.88,-23.57 -0.09,-0.06 -0.17,-0.11 -0.26,-0.16 -2.51,-1.56 -5.02,-1.66 -7.95,-1.99 h -3.07 c -0.35,0.01 -0.47,-0.16 -0.36,-0.49 1.25,-3.67 2.99,-7.17 5.23,-10.49 1.53,-3.16 3.62,-6.25 6.28,-9.26 0.22,-0.25 0.21,-0.63 -0.02,-0.87 l -3.76,-3.84 c 0,0 -0.06,-0.06 -0.11,-0.1 -0.44,-0.36 -1.74,-1.19 -2,-1.4 0,0 0.01,0 0.02,-0.02 0.01,0 0.01,-0.02 0.02,-0.03 0.03,-0.03 0.05,-0.06 0.08,-0.1 0.21,-0.26 0.75,-0.96 2.01,-2.83 0.1,-0.16 0.21,-0.32 0.33,-0.49 0.19,-0.28 0.27,-0.62 0.24,-0.96 -0.33,-3.34 0.55,-6.31 2.62,-8.92 4.28,-5.41 10.51,-11.05 12.26,-19.43 0.85,-4.05 1.95,-8.04 3.31,-11.95 0.16,-0.47 0,-0.77 -0.47,-0.9 l -0.77,-0.21 c -0.81,-0.23 -1.65,0.27 -1.82,1.1 -1.1,5.2 -1.61,10.88 -3.55,15.4 -2.96,6.93 -9.7,12.65 -14.91,17.75 -0.56,0.55 -1.5,0.06 -1.37,-0.72 1.19,-7.1 3.32,-13.29 4.04,-20.25 0.36,-3.5 -0.29,-7.94 0.53,-12.1 3.53,-17.95 6.98,-32.96 13.22,-48.78 4.98,-12.61 12.82,-27.49 18.91,-39.01 1.69,-3.21 4.79,-6.23 6.54,-8.78 3.95,-5.72 7.44,-11.71 10.48,-17.96 0.36,-0.75 1.15,-1.16 2.36,-1.25 0.25,-0.02 0.42,-0.14 0.53,-0.37 l 1.11,-2.29 c 0.05,-0.11 0.14,-0.2 0.24,-0.27 3.45,-1.97 6.3,-4.54 8.54,-7.72 3.69,-5.24 6.39,-7.21 12.19,-9.4 6.66,-2.52 13.32,-5.04 19.99,-7.55 1.3,-0.49 2.42,-1.27 3.35,-2.35 5.61,-6.46 12.87,-12.12 22.93,-20.59 9.69,-8.15 20.93,-12.22 33.73,-12.19 5.83,0.01 12.14,0.37 17.6,-0.91 9.45,-2.21 17.53,-8.23 26.89,-7.65 6.31,0.39 11.64,0.52 16.6,4.16 5.74,4.22 11.22,9.44 18.65,10.77 4.91,0.87 9.2,1.78 13.8,2.48 0.39,0.06 0.69,-0.35 0.52,-0.71 -0.76,-1.53 -2.32,-1.66 -3.79,-1.97 -7.43,-1.58 -15.65,-2.29 -21.65,-7.57 -3.43,-3.02 -6.9,-6.06 -10.41,-9.11 -0.32,-0.28 -0.26,-0.8 0.12,-0.98 1.67,-0.82 3.65,-1.09 5.58,-0.54 4.66,1.34 9.39,2.26 14.2,2.77 5.94,0.63 12.93,-0.29 20.15,1.2 13.48,2.77 26.13,4.93 40.1,9.69 12.5,4.27 25.68,10.88 38.46,16.47 6.59,2.89 11.83,7.95 17.96,11.36 5.54,3.08 9.22,4.82 12.39,9.52 3.09,4.61 6.39,9.08 9.89,13.39 1.25,1.54 2.09,3.13 2.54,4.76 0.35,1.29 -0.95,2.41 -2.18,1.87 -4.76,-2.1 -9.46,-2.05 -14.11,0.16 -0.82,0.39 -1.79,0.05 -2.2,-0.77 -3.13,-6.34 -8.25,-9.95 -15.36,-10.82 -1.49,-0.19 -2.36,1.64 -1.28,2.68 0.56,0.55 1.12,1.3 1.9,1.68 7.41,3.55 10.07,8.34 14.1,14.33 0.43,0.63 0.84,1.01 1.25,1.16 0.69,0.26 1.32,0.08 1.87,-0.54 0.79,-0.87 0.84,-2.41 0.54,-3.36 -0.44,-1.39 0.06,-1.98 1.5,-1.77 L 426.6,82 c 0.42,0.06 0.64,0.3 0.67,0.72 0.19,3.08 0.68,6.1 1.49,9.06 0.97,3.56 0.15,7.22 0.32,10.9 0.19,4.1 3.57,7.87 6.08,10.89 0.21,0.25 0.6,0.17 0.7,-0.13 2.38,-7.32 -9.34,-12.04 -2.11,-20.29 0.2,-0.23 0.25,-0.56 0.12,-0.83 L 430.51,85 c -0.38,-0.82 -0.32,-1.78 0.17,-2.54 1.04,-1.63 2.34,-2.05 3.9,-1.28 3.86,1.91 6.96,14.11 8.87,18.16 3.06,6.5 10.56,12.57 16.12,16.99 1.48,1.18 2.68,3.45 3.3,5.48 1.59,5.21 3.74,11.04 1.81,15.06 -3.08,6.43 -7.44,14.13 -6.07,21.05 0.68,3.43 1.22,6.87 1.61,10.34 0.04,0.3 0.21,0.47 0.51,0.5 1.57,0.16 2.1,-0.88 1.85,-2.32 -0.83,-4.64 -2.28,-10.13 -1.51,-14.57 1.02,-5.89 5.63,-13.3 9.3,-18.07 0.28,-0.37 0.82,-0.4 1.14,-0.07 2.68,2.73 1.88,8.01 2.34,11.56 0.89,6.96 4.96,12.69 5.95,19.52 1.55,10.66 2.44,21.71 2.68,33.14 0.34,16.25 -3.52,31.55 -6.45,47.25 -1.02,5.45 -5.17,9.75 -5.68,15.06 -0.37,3.9 -2.42,8.46 -5.38,11.7 -3.93,4.29 -7.79,8.64 -11.58,13.05 -1.99,2.32 -4.15,3.69 -6.75,5.04 -0.55,0.29 -1.2,-0.17 -1.12,-0.79 0.47,-3.53 -0.09,-6.9 -1.68,-10.11 -0.67,-1.36 -1.84,-1.71 -2.79,-2.6 -0.74,-0.7 -0.71,-1.9 0.08,-2.55 4.48,-3.7 10.4,-11.91 5.52,-17.45 -0.23,-0.25 -0.48,-0.28 -0.75,-0.07 -2.01,1.5 -2.05,3.08 -2.89,5.17 -2.33,5.87 -6.06,10.79 -11.17,14.77 -0.75,0.59 -0.47,1.79 0.47,1.97 1.86,0.37 3.69,0.33 5.5,-0.12 0.37,-0.09 0.61,0.04 0.73,0.39 2.25,6.63 2.1,16.17 -3.29,21.4 -0.79,0.77 -2.85,2.05 -6.16,3.82 -4.58,2.45 -8.8,5.43 -12.67,8.92 -4.09,3.69 -12.6,10.44 -18.33,6.55 -0.31,-0.2 -0.35,-0.45 -0.12,-0.74 2.15,-2.74 3.67,-5.79 4.55,-9.15 0.07,-0.28 0.32,-0.48 0.61,-0.47 3.95,0.08 9.98,0.67 13.56,-1 2.23,-1.05 5.63,-3.15 4.86,-6.07 -0.18,-0.66 -0.96,-0.93 -1.51,-0.53 -4.67,3.44 -10.77,6.33 -16.42,4.14 -2.83,-1.11 -0.36,-6.11 0.76,-7.88 0.18,-0.29 0.1,-0.4 -0.23,-0.35 -0.48,0.08 -3.05,3.35 -4.49,4.71 -0.25,0.23 -0.53,0.33 -0.86,0.31 -3.68,-0.2 -9.44,-1.27 -9.42,3.31 0,0.68 0.6,1.22 1.28,1.15 l 6.31,-0.66 c 0.45,-0.05 0.71,0.16 0.78,0.61 1.42,9.35 -9.58,13.38 -17.04,13.7 -0.33,0.01 -0.6,0.14 -0.81,0.39 -4.32,5.06 -9.93,12.04 -15.93,14.55 -6.24,2.61 -13.54,3.19 -19.7,-0.19 -6.11,-3.36 -10.38,-6.76 -18.19,-6.27 -3.45,0.22 -6.87,0.4 -10.25,0.54 -0.59,0.02 -1.02,0.56 -0.9,1.14 0.07,0.37 0.32,0.67 0.74,0.91 0.28,0.16 0.65,0.24 1.1,0.24 8.68,-0.03 15.84,-1.15 21.73,2.93 3.31,2.29 6.79,4.52 10.45,6.69 0.91,0.53 1.12,1.27 0.65,2.21 -0.34,0.67 -1.18,1.11 -2.53,1.31 -4.35,0.66 -8.44,0.03 -12.75,0.36 -5.13,0.39 -10.41,3.17 -15.24,3.69 -17.35,1.88 -37.62,1.68 -55.22,-2.86 -11.49,-2.97 -24.45,-5.04 -34.92,-10.73 -5.58,-3.03 -13.68,-4.5 -17.72,-9.39 -4.26,-5.16 -9.1,-9.84 -13.56,-14.86 -2.91,-3.27 -6.72,-5.13 -11.45,-5.56 -0.33,-0.03 -0.44,0.11 -0.32,0.42 0.26,0.71 0.75,1.3 1.47,1.78 l 1.89,2.31 c 0.21,0.26 0.34,0.55 0.37,0.88 l 0.39,3.63 c 0.95,6.42 1.53,12.89 1.74,19.4 0.07,2.31 1.73,3.38 1.91,5.67 2.24,29.28 4.36,58.14 4.26,87.54 -0.01,3.7 0.18,8.17 0.7,11.1 0.15,0.85 0.76,1.27 1.81,1.24 0.3,-0.01 0.55,0.24 0.54,0.54 -0.19,4.85 -3.36,8.17 -2.03,13.41 0.44,1.73 1.82,5.53 4.14,11.4 0.23,0.56 0.41,1.15 0.56,1.75 0.08,0.28 0.15,0.57 0.21,0.87 0.11,0.45 0.2,0.91 0.29,1.38 0.1,0.48 0.19,0.96 0.3,1.45 0.08,0.4 0.18,0.81 0.28,1.21 0.01,0.04 0.02,0.07 0.03,0.11 0.05,0.18 0.1,0.37 0.15,0.55 h 4.78 c 0,0 0.01,-0.08 0.01,-0.12 l -1.42,-23.31 -0.84,-7.85 c -0.5,-6.29 -1.17,-12.69 -2.02,-19.2 -1.91,-14.67 -2.19,-27.6 -2.31,-41.63 -0.15,-17.78 -0.9,-33.54 -3.45,-49.3 -0.32,-1.97 -1.23,-4.11 -2.73,-6.43 -0.17,-0.25 -0.26,-0.55 -0.26,-0.85 0.01,-0.64 -0.13,-1.23 -0.41,-1.77 l 0.1,-0.36 c 0.18,-0.64 0.97,-0.86 1.46,-0.41 4.08,3.82 7.86,7.8 11.34,11.94 1.18,1.4 3.95,3.02 5.67,3.62 8.1,2.85 15.99,7.25 23.69,9.61 13.99,4.27 28.21,7.49 42.68,9.66 9.61,1.45 20.04,0.45 29.94,0.68 6.55,0.14 11.73,-1.13 17.73,-2.89 6.55,-1.92 13.4,-0.65 19.45,-1.97 7.39,-1.61 14.97,-6.43 20.84,-11.08 5.88,-4.66 12.73,-14.5 22.29,-16.78 3.74,-0.89 7.49,0.59 10.72,1.01 12.23,1.57 18.61,-8.94 28.09,-14.15 6.22,-3.41 14.53,-5.76 13.45,-14.85 -0.14,-1.17 0.37,-1.67 1.53,-1.49 5.92,0.92 10.59,-1.13 14.02,-6.14 3.43,-5.03 7.27,-9.24 12.17,-13.55 4.87,-4.3 4.41,-8.91 6.17,-14.05 1.61,-4.71 3.68,-9.43 4.85,-14.07 3.89,-15.47 6.36,-30.61 7.43,-45.43 0.35,-4.93 0.11,-10.16 -0.72,-15.69 z"
         id="path142" />
      <path
         d="m 130.46,401.19 c -3.4,-2.4 -7.6,-3.98 -12.61,-4.74 -0.61,1.49 -0.33,2.66 0.84,3.53 l 1.79,1.93 2.3,4.16 c 1.86,6.59 2.3,14.03 -2.56,19.16 l -3.6,4.04 -3.4,2.69 -5.19,3.28 c -6.41,4.76 -20.42,2.15 -28.22,-0.07 -1,-0.28 -3.1,-0.48 -3.4,-0.62 -1,-0.49 -1.73,-1.53 -3.08,-1.56 -1.27,-0.03 -1.96,0.59 -2.09,1.85 -0.99,9.89 14.79,22.1 23.64,22.57 6.97,0.37 12.05,0.52 15.24,0.43 l 2.09,-0.55 3.13,-0.79 c 5.21,-2.57 9.73,-6.13 13.55,-10.66 3.23,-3.86 7.1,-6.08 9.63,-10.69 l -0.05,-2.84 c 2.28,-8.83 -0.57,-25.86 -8.01,-31.12 z m -2.47,30.05 c -1.75,5.91 -6.03,14.35 -12.27,16.47 -10.87,3.68 -22.82,5.24 -32.29,-2.66 -0.24,-0.2 -0.03,-0.58 0.27,-0.49 11.44,3.55 24.74,-0.27 34.17,-5.36 5.44,-2.94 6.64,-5.11 9.75,-8.19 0.41,-0.41 0.54,-0.33 0.37,0.23 z m 5.24,5.22 c -0.09,0.14 -0.31,0.04 -0.27,-0.12 0.99,-3.95 2.17,-7.73 2.21,-11.9 0,-0.13 0.07,-0.2 0.2,-0.19 h 0.28 c 0.13,0 0.2,0.06 0.22,0.18 0.73,4.38 -0.15,8.39 -2.64,12.03 z"
         id="path144" />
    </g>
  </g>
</svg>
